/* XPM */
static char * hi16_action_configure_xpm[] = {
"16 16 79 1",
" 	c None",
".	c #83839F",
"+	c #383858",
"@	c #E2E2E9",
"#	c #E0DFE8",
"$	c #DDDBE6",
"%	c #5A5A79",
"&	c #82829E",
"*	c #DFDFE8",
"=	c #DBDBE6",
"-	c #D9D9E2",
";	c #D5D5E0",
">	c #D0CFDC",
",	c #D9D8E2",
"'	c #CFD0DC",
")	c #CBCCDA",
"!	c #CBCBD8",
"~	c #C7C5D5",
"{	c #C1C1D1",
"]	c #F3F3F6",
"^	c #D0D0DC",
"/	c #CCCCDA",
"(	c #C7C7D5",
"_	c #BCBCCC",
":	c #E0E0E8",
"<	c #B6B6C9",
"[	c #F2F2F5",
"}	c #DDDDE6",
"|	c #D8D8E2",
"1	c #CBCBDA",
"2	c #B0AFC4",
"3	c #F1F1F5",
"4	c #D8D9E2",
"5	c #CCCCD8",
"6	c #B0B0C4",
"7	c #ABAABF",
"8	c #676786",
"9	c #EDEDF2",
"0	c #B7B7C9",
"a	c #AAABBF",
"b	c #A5A6BC",
"c	c #757592",
"d	c #8989A3",
"e	c #EAEAF0",
"f	c #E8E8ED",
"g	c #E5E5EC",
"h	c #E3E3EB",
"i	c #E1E1E9",
"j	c #C1C0D1",
"k	c #A5A5BB",
"l	c #9F9FB6",
"m	c #9A9AB2",
"n	c #71718F",
"o	c #80809B",
"p	c #7E7E9A",
"q	c #7C7C98",
"r	c #B9B9CB",
"s	c #B8B8CA",
"t	c #9595AE",
"u	c #8F8FA9",
"v	c #6D6D8C",
"w	c #AFAFC3",
"x	c #8B8BA6",
"y	c #8886A2",
"z	c #6A6A88",
"A	c #797B97",
"B	c #B5B5C8",
"C	c #A8A8BD",
"D	c #83829E",
"E	c #7F7E9A",
"F	c #767693",
"G	c #B2B2C5",
"H	c #A1A1B8",
"I	c #7F7E9B",
"J	c #7B7B98",
"K	c #737391",
"L	c #B1B1C5",
"M	c #9797AF",
"N	c #777795",
"    .....       ",
"    +@@#$%%     ",
"    &+*=-;>%    ",
"     &+,;')%    ",
"..    &.>!~{%   ",
".].   .^/({_%   ",
".]:. .^!({_<%   ",
".[}|.^1({_<2%   ",
".34;>5({_<67%   ",
"&89^/({_06abc%  ",
" +defghi^jklmn% ",
" &++&opq&rsmtuv%",
"   &+++++p0wuxyz",
"        &+ABCyDE",
"         &+FGHIJ",
"          &+KLMN"};
