/* XPM */
static char * hi16_action_fileremove_xpm[] = {
"16 16 81 1",
" 	c None",
".	c #D0D0DF",
"+	c #9C9CB6",
"@	c #FFFFFF",
"#	c #F9F9FE",
"$	c #F5F5FC",
"%	c #E9E9F2",
"&	c #EBEBF4",
"*	c #FCFCFF",
"=	c #F8F8FE",
"-	c #ECECF4",
";	c #D3D3E1",
">	c #EFEFF6",
",	c #FDFDFF",
"'	c #F1F1F8",
")	c #E6E6F0",
"!	c #D7D7E5",
"~	c #C9C9DA",
"{	c #FFE9E2",
"]	c #FFDBCF",
"^	c #FEFEFF",
"/	c #F2F2F9",
"(	c #EDBFBB",
"_	c #EE988D",
":	c #CECEDD",
"<	c #CCCCDB",
"[	c #FFC1AD",
"}	c #FFAC92",
"|	c #FDC4B5",
"1	c #F1D3D1",
"2	c #FC664C",
"3	c #FE472B",
"4	c #E9A4A1",
"5	c #FEDFD5",
"6	c #FFA085",
"7	c #FF8363",
"8	c #FB8D76",
"9	c #FD664A",
"0	c #FE472C",
"a	c #F3897F",
"b	c #DBDBE8",
"c	c #D8D8E6",
"d	c #FACEC3",
"e	c #FE7656",
"f	c #FF5737",
"g	c #FF4325",
"h	c #F6877B",
"i	c #E0E0EC",
"j	c #DEDEEB",
"k	c #DCDCE9",
"l	c #F8D0C9",
"m	c #FE6042",
"n	c #FF4225",
"o	c #FF2E15",
"p	c #F77069",
"q	c #E5E5EF",
"r	c #E1E1ED",
"s	c #FAD9D5",
"t	c #FE6B51",
"u	c #FF482D",
"v	c #FC6654",
"w	c #FD2F20",
"x	c #FE0C08",
"y	c #F76366",
"z	c #E4E4EE",
"A	c #FD7860",
"B	c #FA8B7E",
"C	c #F4DEE0",
"D	c #F6A0A0",
"E	c #FF0707",
"F	c #FE0909",
"G	c #EF9DA2",
"H	c #F9BCB5",
"I	c #FA9A8F",
"J	c #F0F0F7",
"K	c #EEEEF5",
"L	c #F3969A",
"M	c #F66B6E",
"N	c #F3F3F9",
"O	c #EAEAF3",
"P	c #E7E7F0",
"  ........+     ",
"  .@@@#$%&.+    ",
"  .@@@*=-&.;+   ",
"  .@@@*#>&++++  ",
"  .@@@,#'&)!~+  ",
"  .@{]^*/(_:<+  ",
"  .@[}|*1234.+  ",
"  .@567890abc+  ",
"  .@^defghijk+  ",
"  .@@lmnopqri+  ",
"  .@stuvwxyzi+  ",
"  .@AgBCDEFGr+  ",
"  .@HI'JKLMqr+  ",
"  .@N/J>-O)qr+  ",
"  .*NN'>&OPqr+  ",
"  ++++++++++++  "};
