/* XPM */
static char * hi16_icon_sfvfile_xpm[] = {
"16 16 142 2",
"  	c None",
". 	c #020202",
"+ 	c #484848",
"@ 	c #141414",
"# 	c #CBCBCB",
"$ 	c #E9E9E9",
"% 	c #2F2F2F",
"& 	c #3E3E3E",
"* 	c #92900B",
"= 	c #535206",
"- 	c #757575",
"; 	c #A4A4A4",
"> 	c #727272",
", 	c #282828",
"' 	c #E9E7C4",
") 	c #F2F0D5",
"! 	c #CEC77F",
"~ 	c #E4E4E4",
"{ 	c #20201F",
"] 	c #DED549",
"^ 	c #B9AD44",
"/ 	c #CEC97D",
"( 	c #D1CB88",
"_ 	c #989613",
": 	c #464646",
"< 	c #636364",
"[ 	c #797C7D",
"} 	c #7A7E7F",
"| 	c #4F4F50",
"1 	c #C6BE65",
"2 	c #CDC87C",
"3 	c #D0CA87",
"4 	c #D2CC8B",
"5 	c #959312",
"6 	c #4F4F4F",
"7 	c #868889",
"8 	c #E7F0F1",
"9 	c #DAF3F8",
"0 	c #C1E9F2",
"a 	c #C4E6ED",
"b 	c #838686",
"c 	c #A79B14",
"d 	c #B9AF42",
"e 	c #C3B85E",
"f 	c #CCC779",
"g 	c #D4CE97",
"h 	c #3F3F3F",
"i 	c #717273",
"j 	c #DAE8EA",
"k 	c #F8FCFD",
"l 	c #E5F6F9",
"m 	c #A5DDE9",
"n 	c #80C7D6",
"o 	c #AAD8E1",
"p 	c #636565",
"q 	c #A39F1E",
"r 	c #C3BB60",
"s 	c #CBC676",
"t 	c #828687",
"u 	c #D6EDF2",
"v 	c #C8EAF2",
"w 	c #ACE0EC",
"x 	c #86D0E1",
"y 	c #56ADC0",
"z 	c #86C9D5",
"A 	c #6D787A",
"B 	c #7E8217",
"C 	c #888C19",
"D 	c #98961B",
"E 	c #A09B1D",
"F 	c #404040",
"G 	c #747676",
"H 	c #C2E1E7",
"I 	c #90D1DE",
"J 	c #7FCADA",
"K 	c #54B4C7",
"L 	c #40919F",
"M 	c #9DD1DB",
"N 	c #535656",
"O 	c #ABAB84",
"P 	c #86852F",
"Q 	c #747714",
"R 	c #7F8617",
"S 	c #898A19",
"T 	c #B7B45E",
"U 	c #717171",
"V 	c #8A9192",
"W 	c #ACDBE5",
"X 	c #74BECC",
"Y 	c #60ACBA",
"Z 	c #9CD1DE",
"` 	c #8D9596",
" .	c #3B361B",
"..	c #D5D5D5",
"+.	c #D7D7D7",
"@.	c #C7C7CA",
"#.	c #B1B08A",
"$.	c #83802E",
"%.	c #83892E",
"&.	c #5E5F5E",
"*.	c #666E70",
"=.	c #96A6A9",
"-.	c #96A4A8",
";.	c #5E6A6C",
">.	c #403A25",
",.	c #EEE6CE",
"'.	c #5A5745",
").	c #CCCCCC",
"!.	c #C5C5C5",
"~.	c #BFBFBF",
"{.	c #BDBEC0",
"].	c #6D6D6D",
"^.	c #454545",
"/.	c #3C3C3D",
"(.	c #383838",
"_.	c #686868",
":.	c #695E24",
"<.	c #4C4E50",
"[.	c #B3B3B4",
"}.	c #49494A",
"|.	c #C0C0C0",
"1.	c #BBBBBB",
"2.	c #B6B6B6",
"3.	c #AEAEAE",
"4.	c #222222",
"5.	c #494C4D",
"6.	c #9F9F9F",
"7.	c #444445",
"8.	c #B5B5B5",
"9.	c #B0B0B0",
"0.	c #AAAAAA",
"a.	c #6B6B6B",
"b.	c #1E1E1F",
"c.	c #4A4E4E",
"d.	c #424243",
"e.	c #585858",
"f.	c #9D9D9D",
"g.	c #A7A7A7",
"h.	c #696969",
"i.	c #393939",
"j.	c #292929",
"k.	c #363538",
"        . +                     ",
"      @ # $ + + %               ",
"    & * = - ; # $ + . + > .     ",
"    , ' ) ! * = - ; # ~ $ $ .   ",
"    { ] ^ / ' ) ( _ = - ; # $ : ",
"    < [ } | 1 2 3 ' ) 4 5 = - 6 ",
"  7 8 9 0 a b c d e f g ' ) ! h ",
"i j k l m n o p q c c d r s ' h ",
"t u v w x y z A B C D E c c s F ",
"G H I J K L M N O P Q R S D T F ",
"U V W X Y Z `  ...+.@.#.$.Q %.F ",
"  &.*.=.-.;.>.,.'.).!.~.!.{.].^.",
"      /.(._.:.<.[.}.|.1.2.3.].: ",
"            . 4.5.6.7.8.9.0.a.^.",
"                b.c.d.e.f.g.h.i.",
"                        . j.k.  "};
