/* XPM */
static char * hi16_action_filenew_xpm[] = {
"16 16 42 1",
" 	c None",
".	c #D0D0DF",
"+	c #9C9CB6",
"@	c #FFFFFF",
"#	c #F9F9FE",
"$	c #F5F5FC",
"%	c #E9E9F2",
"&	c #EBEBF4",
"*	c #FCFCFF",
"=	c #F8F8FE",
"-	c #ECECF4",
";	c #D3D3E1",
">	c #EFEFF6",
",	c #FDFDFF",
"'	c #F1F1F8",
")	c #E6E6F0",
"!	c #D7D7E5",
"~	c #C9C9DA",
"{	c #FEFEFF",
"]	c #F2F2F9",
"^	c #EEEEF5",
"/	c #DADAE7",
"(	c #CECEDD",
"_	c #CCCCDB",
":	c #F3F3F9",
"<	c #D5D5E4",
"[	c #D2D2E0",
"}	c #E7E7F0",
"|	c #E0E0EC",
"1	c #DCDCE9",
"2	c #DBDBE8",
"3	c #D8D8E6",
"4	c #F6F6FD",
"5	c #E5E5EF",
"6	c #DEDEEB",
"7	c #F0F0F7",
"8	c #EAEAF3",
"9	c #E8E8F1",
"0	c #E1E1ED",
"a	c #F4F4FA",
"b	c #E4E4EE",
"c	c #FAFAFF",
"  ........+     ",
"  .@@@#$%&.+    ",
"  .@@@*=-&.;+   ",
"  .@@@*#>&++++  ",
"  .@@@,#'&)!~+  ",
"  .@@@{*]^/(_+  ",
"  .@@@@*:&<[.+  ",
"  .@@{#$}|123+  ",
"  .@{,4^)5|61+  ",
"  .@@#7^8950|+  ",
"  .@,a'>&8)b|+  ",
"  .@c:'>&8}50+  ",
"  .@$:'7^8}50+  ",
"  .@:]7>-8)50+  ",
"  .*::'>&8}50+  ",
"  ++++++++++++  "};
