/* XPM */
static char * hi16_action_fileopen_xpm[] = {
"18 18 44 1",
" 	c None",
".	c #1F73E0",
"+	c #8FBDE5",
"@	c #00368B",
"#	c #599BD8",
"$	c #2F82CE",
"%	c #5397D5",
"&	c #287DCB",
"*	c #2768C6",
"=	c #4D93D3",
"-	c #2178C8",
";	c #81B8E4",
">	c #61A6DD",
",	c #16A9E4",
"'	c #9EE0F3",
")	c #498ED0",
"!	c #1B72C4",
"~	c #5599D6",
"{	c #529CD9",
"]	c #159FDD",
"^	c #7FD0EE",
"/	c #438ACD",
"(	c #4592D5",
"_	c #1394D5",
":	c #62C1E8",
"<	c #3A81C8",
"[	c #2B7FCC",
"}	c #107FC4",
"|	c #2CA1DD",
"1	c #4B91D3",
"2	c #1E75C8",
"3	c #0D74BB",
"4	c #0957B1",
"5	c #5D7BB0",
"6	c #B0C3DE",
"7	c #A9BEDB",
"8	c #B1C4DF",
"9	c #B8CAE2",
"0	c #C8D6E9",
"a	c #CFDBEC",
"b	c #D6E1EF",
"c	c #E6ECF5",
"d	c #EDF2F8",
"e	c #F5F7FB",
"                  ",
"                  ",
"                  ",
" ....             ",
".++++@            ",
".#$$$$$$$$$$@     ",
".%&&************* ",
".=-*;>>>>>>>,'''* ",
".)!*~{{{{{{{]^^^* ",
"./*~((((((((_::*  ",
".<*~[[[[[[[[}||*  ",
".*12222222223}*   ",
".*444444444444*   ",
".5677890abcde*    ",
".6767890abcde*    ",
"@@@@@@@@@@@@@     ",
"                  ",
"                  "};
