/* XPM */
static char * hi16_action_fileclose_xpm[] = {
"16 16 94 2",
"  	c None",
". 	c #2B2B2B",
"+ 	c #656565",
"@ 	c #5C5C5C",
"# 	c #595959",
"$ 	c #575757",
"% 	c #555555",
"& 	c #505050",
"* 	c #4F4F4F",
"= 	c #4D4D4D",
"- 	c #4B4B4B",
"; 	c #292929",
"> 	c #D9D9D9",
", 	c #6F6F6F",
"' 	c #7E7E7E",
") 	c #858585",
"! 	c #8B8B8B",
"~ 	c #8D8D8D",
"{ 	c #919191",
"] 	c #959595",
"^ 	c #999999",
"/ 	c #A0A0A0",
"( 	c #BCBCBC",
"_ 	c #404040",
": 	c #D7D7D7",
"< 	c #232323",
"[ 	c #4A4A4A",
"} 	c #525252",
"| 	c #606060",
"1 	c #6B6B6B",
"2 	c #737373",
"3 	c #797979",
"4 	c #7F7F7F",
"5 	c #B4B4B4",
"6 	c #272727",
"7 	c #636363",
"8 	c #818181",
"9 	c #484848",
"0 	c #5A5A5A",
"a 	c #5F5F5F",
"b 	c #676767",
"c 	c #717171",
"d 	c #787878",
"e 	c #7D7D7D",
"f 	c #828282",
"g 	c #888888",
"h 	c #8F8F8F",
"i 	c #929292",
"j 	c #A8A8A8",
"k 	c #414141",
"l 	c #7C7C7C",
"m 	c #D5D5D5",
"n 	c #CCCCCC",
"o 	c #D3D3D3",
"p 	c #AAAAAA",
"q 	c #3B3B3B",
"r 	c #FFFFFF",
"s 	c #DCDCDC",
"t 	c #E2E2E2",
"u 	c #DDDDDD",
"v 	c #979797",
"w 	c #383838",
"x 	c #DFDFDF",
"y 	c #E5E5E5",
"z 	c #9E9E9E",
"A 	c #A4A4A4",
"B 	c #AFAFAF",
"C 	c #343434",
"D 	c #ABABAB",
"E 	c #313131",
"F 	c #E7E7E7",
"G 	c #BABABA",
"H 	c #2E2E2E",
"I 	c #EBEBEB",
"J 	c #B0B0B0",
"K 	c #BFBFBF",
"L 	c #2A2A2A",
"M 	c #B9B9B9",
"N 	c #C9C9C9",
"O 	c #C3C3C3",
"P 	c #262626",
"Q 	c #E4E4E4",
"R 	c #E8E8E8",
"S 	c #D2D2D2",
"T 	c #C8C8C8",
"U 	c #9C9C9C",
"V 	c #868686",
"W 	c #212121",
"X 	c #BDBDBD",
"Y 	c #DADADA",
"Z 	c #C6C6C6",
"` 	c #777777",
" .	c #1A1A1A",
"..	c #1F1F1F",
"    . + @ # $ % & * = - = ;     ",
"  @ > , ' ) ) ! ~ { ] ^ / ( _   ",
". : < [ } $ | + 1 2 3 4 ) ! 5 6 ",
"7 8 9 0 a b 1 c d e f g h i j k ",
"@ l } a m n c d e f > o i ^ p q ",
"# ) $ b : r s e f t r u v / p w ",
"$ ) | 1 c s r x t r y v z A B C ",
"% ! + c d e x r r y v z / D 5 E ",
"& ~ 1 d e f t r r F z / j 5 G H ",
"* { 2 e f t r y F r I j J K K L ",
"= ] 3 f > r y v z I r I M N O P ",
"- ^ 4 g Q u v z / j I R O S T < ",
"= U V h i v z / j J M O N s T W ",
"; X ! i ^ / A D 5 K N S Y r 3 6 ",
"  _ 5 j p p B 5 G K O Z Y `  .  ",
"    6 k q w C E H L P < ..6     "};
