/* XPM */
static char * hi16_action_filesaveas_xpm[] = {
"18 18 99 2",
"  	c None",
". 	c #FDD7A6",
"+ 	c #C87F44",
"@ 	c #5B3E26",
"# 	c #1B1B1B",
"$ 	c #3F3F3F",
"% 	c #404040",
"& 	c #1C1C1C",
"* 	c #EA7804",
"= 	c #FAA94A",
"- 	c #EEB36F",
"; 	c #D09D6B",
"> 	c #CC9A72",
", 	c #DED0C3",
"' 	c #FAF7F4",
") 	c #FBF6F2",
"! 	c #FAF4EE",
"~ 	c #F9F1EA",
"{ 	c #F8EEE6",
"] 	c #F7ECE2",
"^ 	c #777777",
"/ 	c #000000",
"( 	c #B65C03",
"_ 	c #E17504",
": 	c #F89A30",
"< 	c #F5C17F",
"[ 	c #D2975F",
"} 	c #A18761",
"| 	c #6E9E98",
"1 	c #68A4A4",
"2 	c #69A5A5",
"3 	c #ABBBB6",
"4 	c #F6EAE0",
"5 	c #737373",
"6 	c #100E0B",
"7 	c #291806",
"8 	c #693502",
"9 	c #E87B0C",
"0 	c #EC842F",
"a 	c #EEA275",
"b 	c #DBA88D",
"c 	c #E9DBD2",
"d 	c #F6ECE3",
"e 	c #F7EBE1",
"f 	c #F6E8DD",
"g 	c #707070",
"h 	c #1A1A1A",
"i 	c #717171",
"j 	c #202020",
"k 	c #332215",
"l 	c #71452A",
"m 	c #9E6749",
"n 	c #B67D5F",
"o 	c #6A5344",
"p 	c #629B9B",
"q 	c #A9B9B4",
"r 	c #F5E7DB",
"s 	c #6D6D6D",
"t 	c #7A7A7A",
"u 	c #3D3D3D",
"v 	c #E2DEDB",
"w 	c #CBC6C2",
"x 	c #BEB8B3",
"y 	c #B9B2AC",
"z 	c #BEB7B0",
"A 	c #D6CBC3",
"B 	c #EFE2D6",
"C 	c #F4E5D8",
"D 	c #696969",
"E 	c #797979",
"F 	c #3C3C3C",
"G 	c #676767",
"H 	c #666666",
"I 	c #757575",
"J 	c #727272",
"K 	c #6E6E6E",
"L 	c #6B6B6B",
"M 	c #646464",
"N 	c #626262",
"O 	c #606060",
"P 	c #5F5F5F",
"Q 	c #E6E6E6",
"R 	c #DBDBDB",
"S 	c #D1D1D1",
"T 	c #C7C7C7",
"U 	c #8E8E8E",
"V 	c #8B8B8B",
"W 	c #5B5B5B",
"X 	c #424242",
"Y 	c #BCBCBC",
"Z 	c #858585",
"` 	c #838383",
" .	c #585858",
"..	c #B2B2B2",
"+.	c #7D7D7D",
"@.	c #7B7B7B",
"#.	c #545454",
"$.	c #A7A7A7",
"%.	c #535353",
"                                    ",
". + @ # $ % % % % % % % & &         ",
"* = - ; > , ' ) ! ~ { ] % ^ &       ",
"/ ( _ : < [ } | 1 2 3 4 % 5 &       ",
"  6 7 8 9 0 a b c d e f % g &       ",
"  h i j k l m n o p q r % s &       ",
"  & t u v w x y z A B C % D &       ",
"  & E ^ $ u F F F u $ % G H &       ",
"  & I 5 J g K s L D G H M N &       ",
"  & J g K % % % % % % % O P &       ",
"  & K s % Q R S T % U V % W &       ",
"  & L D % R X X Y % Z ` %  .&       ",
"  & G H % S X H ..% +.@.% #.&       ",
"  & M N % T Y ..$.% I 5 % %.&       ",
"    & & & % % % % & & & & &         ",
"                                    ",
"                                    ",
"                                    "};
