/* XPM */
static char * hi16_action_fileadd_xpm[] = {
"16 16 42 1",
" 	c None",
".	c #D0D0DF",
"+	c #9C9CB6",
"@	c #FFFFFF",
"#	c #F9F9FE",
"$	c #F5F5FC",
"%	c #E9E9F2",
"&	c #EBEBF4",
"*	c #FCFCFF",
"=	c #F8F8FE",
"-	c #ECECF4",
";	c #D3D3E1",
">	c #EFEFF6",
",	c #FDFDFF",
"'	c #F1F1F8",
")	c #E6E6F0",
"!	c #D7D7E5",
"~	c #C9C9DA",
"{	c #FEFEFF",
"]	c #F2F2F9",
"^	c #EEEEF5",
"/	c #DADAE7",
"(	c #CECEDD",
"_	c #CCCCDB",
":	c #09C600",
"<	c #D5D5E4",
"[	c #D2D2E0",
"}	c #BCEA7E",
"|	c #098D00",
"1	c #E0E0EC",
"2	c #DCDCE9",
"3	c #DBDBE8",
"4	c #D8D8E6",
"5	c #DEDEEB",
"6	c #E1E1ED",
"7	c #E4E4EE",
"8	c #FAFAFF",
"9	c #F3F3F9",
"0	c #EAEAF3",
"a	c #E7E7F0",
"b	c #E5E5EF",
"c	c #F0F0F7",
"  ........+     ",
"  .@@@#$%&.+    ",
"  .@@@*=-&.;+   ",
"  .@@@*#>&++++  ",
"  .@@@,#'&)!~+  ",
"  .@@@{*]^/(_+  ",
"  .@@@:::&<[.+  ",
"  .@@{:}|1234+  ",
"  .@:::}|||52+  ",
"  .@:}}}}}|61+  ",
"  .@||:}|||71+  ",
"  .@89:}|0ab6+  ",
"  .@$9|||0ab6+  ",
"  .@9]c>-0)b6+  ",
"  .*99'>&0ab6+  ",
"  ++++++++++++  "};
