/* XPM */
static char * hi16_action_directoryadd_xpm[] = {
"16 16 112 2",
"  	c None",
". 	c #09C600",
"+ 	c #BCEA7E",
"@ 	c #098D00",
"# 	c #64A6F7",
"$ 	c #357CE3",
"% 	c #4392E3",
"& 	c #B8D9F8",
"* 	c #4F9BED",
"= 	c #126EE0",
"- 	c #F1F0F6",
"; 	c #80ADE2",
"> 	c #4F95E4",
", 	c #1876DF",
"' 	c #0C6ADF",
") 	c #0C4CB9",
"! 	c #78ACE4",
"~ 	c #B4D8F8",
"{ 	c #97CAFF",
"] 	c #6FAEFC",
"^ 	c #3175D8",
"/ 	c #0E51B4",
"( 	c #85BBED",
"_ 	c #DAF0F9",
": 	c #BDE2FB",
"< 	c #9CCCF8",
"[ 	c #84BBF8",
"} 	c #6FAAF4",
"| 	c #4780D4",
"1 	c #0851AA",
"2 	c #0035A9",
"3 	c #CFD0D4",
"4 	c #EEFCFD",
"5 	c #CEECFB",
"6 	c #B1D9F9",
"7 	c #9AC9F9",
"8 	c #7EB3F2",
"9 	c #568CDA",
"0 	c #1156BA",
"a 	c #004595",
"b 	c #003293",
"c 	c #EFEFEE",
"d 	c #FFFFFF",
"e 	c #84BCEE",
"f 	c #E2F8FC",
"g 	c #C9E8FB",
"h 	c #B0D8FA",
"i 	c #90C0F3",
"j 	c #6B9FE5",
"k 	c #3375CC",
"l 	c #2A71C7",
"m 	c #003B96",
"n 	c #0651AE",
"o 	c #0E3DAC",
"p 	c #DFD8D5",
"q 	c #FFF7F2",
"r 	c #DEEFFE",
"s 	c #BEDCF6",
"t 	c #E5FCFD",
"u 	c #C4E6FB",
"v 	c #A8D4F8",
"w 	c #85B6EC",
"x 	c #437DCE",
"y 	c #2170C9",
"z 	c #397CC8",
"A 	c #A3B6D4",
"B 	c #E3D3D2",
"C 	c #295BC3",
"D 	c #74A7D5",
"E 	c #CBC7CE",
"F 	c #7EB0E7",
"G 	c #F5FFFF",
"H 	c #C1E7FE",
"I 	c #9AC8F3",
"J 	c #4B84D3",
"K 	c #5490D9",
"L 	c #B3C7E3",
"M 	c #E9DFDF",
"N 	c #D3CED8",
"O 	c #D7CFD3",
"P 	c #7488C1",
"Q 	c #CBEAFF",
"R 	c #D9F9FF",
"S 	c #70AAE1",
"T 	c #C7E0EE",
"U 	c #9DCBF1",
"V 	c #84AEE4",
"W 	c #D0E1F4",
"X 	c #FFF9F4",
"Y 	c #EEE9EB",
"Z 	c #E6E2E5",
"` 	c #D9D1D6",
" .	c #637DC0",
"..	c #2D63D3",
"+.	c #B4DBF9",
"@.	c #D6F8FF",
"#.	c #75ACE3",
"$.	c #F0FAFF",
"%.	c #FCF9F8",
"&.	c #91A5D4",
"*.	c #2A5FCE",
"=.	c #A4CEF4",
"-.	c #77AFE8",
";.	c #E1EBFC",
">.	c #3F73D7",
",.	c #043BAE",
"'.	c #75A9E3",
").	c #A8C6EC",
"!.	c #6195E7",
"~.	c #1450C5",
"{.	c #7AB0FB",
"].	c #155ED2",
"    . . .                       ",
"    . + @           # $         ",
". . . + @ @ @   % & * =         ",
". + + + + + @ - ; > , ' )       ",
"@ @ . + @ @ @ ! ~ { ] ^ /       ",
"    . + @ ( _ : < [ } | 1 2     ",
"  3 @ @ @ 4 5 6 7 8 9 0 a b     ",
"c d d e d f g h i j k l m n o   ",
"  p q r s t u v w x y z A B C   ",
"    D E F G H I J K L M N O P   ",
"    Q R S T U V W X Y Z `  ...  ",
"      +.@.#.$.d d %.q &.*.      ",
"        =.-.d d d ;.>.,.        ",
"          '.).d !.~.            ",
"            {.].                ",
"                                "};
