/* XPM */
static char * hi16_action_addmatchingfiles_xpm[] = {
"16 16 144 2",
"  	c None",
". 	c #DFD3B0",
"+ 	c #CDC8B2",
"@ 	c #DDD0BE",
"# 	c #FFC12D",
"$ 	c #FAC231",
"% 	c #64A6F7",
"& 	c #357CE3",
"* 	c #F0C363",
"= 	c #EDB800",
"- 	c #D9A954",
"; 	c #DFC547",
"> 	c #DAC244",
", 	c #9B8441",
"' 	c #FDCE14",
") 	c #F8B329",
"! 	c #4392E3",
"~ 	c #B8D9F8",
"{ 	c #4F9BED",
"] 	c #126EE0",
"^ 	c #E0CB9D",
"/ 	c #F3D330",
"( 	c #F1DC59",
"_ 	c #F2F5B1",
": 	c #F2F5B2",
"< 	c #FEE55F",
"[ 	c #E8CC36",
"} 	c #E8C398",
"| 	c #80ADE2",
"1 	c #4F95E4",
"2 	c #1876DF",
"3 	c #0C6ADF",
"4 	c #0C4CB9",
"5 	c #E1B586",
"6 	c #BDA117",
"7 	c #FEFFEB",
"8 	c #CDB52B",
"9 	c #837365",
"0 	c #78ACE4",
"a 	c #B4D8F8",
"b 	c #97CAFF",
"c 	c #6FAEFC",
"d 	c #3175D8",
"e 	c #0E51B4",
"f 	c #F3C74C",
"g 	c #EEE262",
"h 	c #FCFFCF",
"i 	c #F4E969",
"j 	c #D0AD47",
"k 	c #B6C6CB",
"l 	c #9CCCF8",
"m 	c #84BBF8",
"n 	c #6FAAF4",
"o 	c #4780D4",
"p 	c #0851AA",
"q 	c #0035A9",
"r 	c #D19A2C",
"s 	c #FFE20E",
"t 	c #CC982D",
"u 	c #D6CB5A",
"v 	c #D8CC5A",
"w 	c #CB962B",
"x 	c #FFE81A",
"y 	c #EEC54E",
"z 	c #9AC9F9",
"A 	c #7EB3F2",
"B 	c #568CDA",
"C 	c #1156BA",
"D 	c #004595",
"E 	c #003293",
"F 	c #A6A19B",
"G 	c #BA9971",
"H 	c #A99D97",
"I 	c #F6C02E",
"J 	c #989995",
"K 	c #A49175",
"L 	c #AAC4D8",
"M 	c #90C0F3",
"N 	c #6B9FE5",
"O 	c #3375CC",
"P 	c #2A71C7",
"Q 	c #003B96",
"R 	c #0651AE",
"S 	c #0E3DAC",
"T 	c #DFD8D5",
"U 	c #F6EEE9",
"V 	c #EEC37F",
"W 	c #E0BB7C",
"X 	c #DDF3F4",
"Y 	c #C4E6FB",
"Z 	c #A8D4F8",
"` 	c #85B6EC",
" .	c #437DCE",
"..	c #2170C9",
"+.	c #397CC8",
"@.	c #A3B6D4",
"#.	c #E3D3D2",
"$.	c #295BC3",
"%.	c #74A7D5",
"&.	c #CBC7CE",
"*.	c #7EB0E7",
"=.	c #F5FFFF",
"-.	c #C1E7FE",
";.	c #9AC8F3",
">.	c #4B84D3",
",.	c #5490D9",
"'.	c #B3C7E3",
").	c #E9DFDF",
"!.	c #D3CED8",
"~.	c #D7CFD3",
"{.	c #7488C1",
"].	c #CBEAFF",
"^.	c #D9F9FF",
"/.	c #70AAE1",
"(.	c #C7E0EE",
"_.	c #9DCBF1",
":.	c #84AEE4",
"<.	c #D0E1F4",
"[.	c #FFF9F4",
"}.	c #EEE9EB",
"|.	c #E6E2E5",
"1.	c #D9D1D6",
"2.	c #637DC0",
"3.	c #2D63D3",
"4.	c #B4DBF9",
"5.	c #D6F8FF",
"6.	c #75ACE3",
"7.	c #F0FAFF",
"8.	c #FFFFFF",
"9.	c #FCF9F8",
"0.	c #FFF7F2",
"a.	c #91A5D4",
"b.	c #2A5FCE",
"c.	c #A4CEF4",
"d.	c #77AFE8",
"e.	c #E1EBFC",
"f.	c #3F73D7",
"g.	c #043BAE",
"h.	c #75A9E3",
"i.	c #A8C6EC",
"j.	c #6195E7",
"k.	c #1450C5",
"l.	c #7AB0FB",
"m.	c #155ED2",
"      . +                       ",
"  @   # $           % &         ",
"* = - ; > , ' ) ! ~ { ]         ",
"^ / ( _ : < [ } | 1 2 3 4       ",
"  5 6 7 7 8 9 0 a b c d e       ",
"  f g h h i j k l m n o p q     ",
"r s t u v w x y z A B C D E     ",
"F G H I I J K L M N O P Q R S   ",
"  T U V W X Y Z `  ...+.@.#.$.  ",
"    %.&.*.=.-.;.>.,.'.).!.~.{.  ",
"    ].^./.(._.:.<.[.}.|.1.2.3.  ",
"      4.5.6.7.8.8.9.0.a.b.      ",
"        c.d.8.8.8.e.f.g.        ",
"          h.i.8.j.k.            ",
"            l.m.                ",
"                                "};
