/* XPM */
static char * hi16_action_helpabout_xpm[] = {
"16 16 183 2",
"  	c None",
". 	c #636364",
"+ 	c #797C7D",
"@ 	c #7A7E7F",
"# 	c #4F4F50",
"$ 	c #868889",
"% 	c #E7F0F1",
"& 	c #DAF3F8",
"* 	c #C1E9F2",
"= 	c #C4E6ED",
"- 	c #838686",
"; 	c #717273",
"> 	c #DAE8EA",
", 	c #F8FCFD",
"' 	c #E5F6F9",
") 	c #A5DDE9",
"! 	c #80C7D6",
"~ 	c #AAD8E1",
"{ 	c #636565",
"] 	c #828687",
"^ 	c #D6EDF2",
"/ 	c #C8EAF2",
"( 	c #ACE0EC",
"_ 	c #86D0E1",
": 	c #56ADC0",
"< 	c #86C9D5",
"[ 	c #6D787A",
"} 	c #747676",
"| 	c #C2E1E7",
"1 	c #90D1DE",
"2 	c #7FCADA",
"3 	c #54B4C7",
"4 	c #40919F",
"5 	c #9DD1DB",
"6 	c #535656",
"7 	c #717171",
"8 	c #8A9192",
"9 	c #ACDBE5",
"0 	c #74BECC",
"a 	c #60ACBA",
"b 	c #9CD1DE",
"c 	c #8D9596",
"d 	c #3B361B",
"e 	c #5E5F5E",
"f 	c #666E70",
"g 	c #96A6A9",
"h 	c #96A4A8",
"i 	c #5E6A6C",
"j 	c #403A25",
"k 	c #EEE6CE",
"l 	c #5A5745",
"m 	c #3C3C3D",
"n 	c #383838",
"o 	c #695E24",
"p 	c #4C4E50",
"q 	c #B3B3B4",
"r 	c #49494A",
"s 	c #222222",
"t 	c #494C4D",
"u 	c #9F9F9F",
"v 	c #444445",
"w 	c #1E1E1F",
"x 	c #4A4E4E",
"y 	c #424243",
"z 	c #000000",
"A 	c #020202",
"B 	c #484848",
"C 	c #141414",
"D 	c #CBCBCB",
"E 	c #E9E9E9",
"F 	c #2F2F2F",
"G 	c #3E3E3E",
"H 	c #006B9E",
"I 	c #003D5A",
"J 	c #757575",
"K 	c #A4A4A4",
"L 	c #727272",
"M 	c #282828",
"N 	c #C1E1ED",
"O 	c #D3EDF6",
"P 	c #79BFD6",
"Q 	c #E4E4E4",
"R 	c #202121",
"S 	c #3CB9ED",
"T 	c #3AA3C5",
"U 	c #77BCD6",
"V 	c #82C3D9",
"W 	c #0873A5",
"X 	c #003C5B",
"Y 	c #464646",
"Z 	c #1E1E1E",
"` 	c #19AFEE",
" .	c #0787B6",
"..	c #38A2C5",
"+.	c #5DB1D0",
"@.	c #76BBD5",
"#.	c #81C2D8",
"$.	c #85C4D9",
"%.	c #0770A1",
"&.	c #4F4F4F",
"*.	c #169ACB",
"=.	c #106CA1",
"-.	c #127CAD",
";.	c #0784B2",
">.	c #56B0CD",
",.	c #72B9D4",
"'.	c #91C9DB",
").	c #3F3F3F",
"!.	c #2B2B2B",
"~.	c #1380B2",
"{.	c #0B5482",
"].	c #0E5E91",
"^.	c #0E6597",
"/.	c #116FA0",
"(.	c #127FB1",
"_.	c #58AECD",
":.	c #70B8D3",
"<.	c #454545",
"[.	c #FCFCFC",
"}.	c #E9E4E4",
"|.	c #8AA9B9",
"1.	c #296C8E",
"2.	c #0E5C8D",
"3.	c #0F6698",
"4.	c #1175A4",
"5.	c #404040",
"6.	c #444444",
"7.	c #F6F6F6",
"8.	c #F1F1F1",
"9.	c #EBEBEB",
"0.	c #EAEAEA",
"a.	c #DBD7D6",
"b.	c #81A0B0",
"c.	c #286C8F",
"d.	c #0F6596",
"e.	c #1172A4",
"f.	c #57A1C0",
"g.	c #424242",
"h.	c #EEEEEE",
"i.	c #E6E6E6",
"j.	c #E1E1E1",
"k.	c #DCDCDC",
"l.	c #D5D5D5",
"m.	c #D7D7D7",
"n.	c #CBC9C8",
"o.	c #88A6B5",
"p.	c #276C8C",
"q.	c #276892",
"r.	c #363636",
"s.	c #C4C4C4",
"t.	c #DFDFDF",
"u.	c #DEDEDE",
"v.	c #DBDBDB",
"w.	c #D6D6D6",
"x.	c #D1D1D1",
"y.	c #CCCCCC",
"z.	c #C5C5C5",
"A.	c #BFBFBF",
"B.	c #C1BEBE",
"C.	c #6E6D6D",
"D.	c #686868",
"E.	c #C0C0C0",
"F.	c #CECECE",
"G.	c #CACACA",
"H.	c #C6C6C6",
"I.	c #BBBBBB",
"J.	c #B6B6B6",
"K.	c #AEAEAE",
"L.	c #323232",
"M.	c #606060",
"N.	c #AFAFAF",
"O.	c #B5B5B5",
"P.	c #B0B0B0",
"Q.	c #AAAAAA",
"R.	c #6C6B6B",
"S.	c #2E2E2E",
"T.	c #585858",
"U.	c #9D9D9D",
"V.	c #A7A7A7",
"W.	c #6A6969",
"X.	c #393939",
"Y.	c #292929",
"Z.	c #3A3835",
"        A B                     ",
"      C D E B B F               ",
"    G H I J K D E B A B L A     ",
"    M N O P H I J K D Q E E A   ",
"    R S T U N O V W X J K D E Y ",
"    . + @ # +.@.#.N O $.%.I J &.",
"  $ % & * = -  ...>.,.'.N O P ).",
"; > , ' ) ! ~ { (. . ..._.:.N ).",
"] ^ / ( _ : < [ 2.3.4.-. . .:.5.",
"} | 1 2 3 4 5 6 b.c.{.].d.e.f.5.",
"7 8 9 0 a b c d l.m.n.o.p.{.q.5.",
"  e f g h i j k l y.z.A.z.B.C.<.",
"      m n D.o p q r E.I.J.K.C.Y ",
"            A s t u v O.P.Q.R.<.",
"                w x y T.U.V.W.X.",
"                  z     A Y.Z.  "};
