/* XPM */
static char * hi22_action_recompute_xpm[] = {
"22 24 51 1",
" 	c None",
".	c #020204",
"+	c #060604",
"@	c #8EFEFC",
"#	c #7AF6F4",
"$	c #72F2EC",
"%	c #5EEAE4",
"&	c #4EE2DC",
"*	c #42DADC",
"=	c #3AD6D4",
"-	c #32D2D4",
";	c #26CECC",
">	c #1ECACC",
",	c #16C6C4",
"'	c #0AC2C4",
")	c #02BEBC",
"!	c #86FAF4",
"~	c #069A94",
"{	c #069694",
"]	c #06928C",
"^	c #024244",
"/	c #026664",
"(	c #7AFE7C",
"_	c #02C2C4",
":	c #6AEEEC",
"<	c #068E8C",
"[	c #028A84",
"}	c #C6CAC4",
"|	c #BEBEBC",
"1	c #B2B2B4",
"2	c #BEBEC4",
"3	c #565654",
"4	c #727274",
"5	c #464644",
"6	c #028684",
"7	c #727674",
"8	c #8E8E8C",
"9	c #323234",
"0	c #028284",
"a	c #CACAC4",
"b	c #CACACC",
"c	c #027E7C",
"d	c #767674",
"e	c #FEC2C4",
"f	c #E6AEAC",
"g	c #D2A6A4",
"h	c #D29E9C",
"i	c #FE0204",
"j	c #FE6E6C",
"k	c #562224",
"l	c #FE9294",
"   .........++.+...   ",
"  .@##$%%&&*=-;>,').  ",
"  .!~{{{{~{{~~{{{]^.  ",
"  .#~^^^^^^^^^^^/]^.  ",
"  .${^...(.(.((._]^.  ",
"  .:{^....((..(.)<^.  ",
"  .%~^.....(.((._<^.  ",
"  .&{/)))))))))))[^.  ",
"  .&~{{{{{]]]]<<<[^.  ",
"  .*~}|11}211}|11[^.  ",
"  .={|345|345|3456^.  ",
"  .-{1789178917896^.  ",
"  .;]59..59..59..0^.  ",
"  .>]a|11b|11b|110^.  ",
"  .,<|345|345|345c^.  ",
"  .'<17891d891d89c^.  ",
"  .)<59..59..59..c^.  ",
"  .)[a|11a|11efghc^.  ",
"  .)[|345|345fijkc^.  ",
"  .)61d891d89gjl.c^.  ",
"  .)659..59..k...c^.  ",
"  .)000ccccccccccc^.  ",
"  .^^^^^^^^^^^^^^^^.  ",
"   ................   "};
