/* XPM */
static char * hi22_action_fileadd_xpm[] = {
"22 22 52 1",
" 	c None",
".	c #CDD1DD",
"+	c #CFD3DE",
"@	c #C9CEDA",
"#	c #C4C8D5",
"$	c #C1C5D3",
"%	c #B2B7C8",
"&	c #FFFFFF",
"*	c #FDFEFE",
"=	c #F5F7FA",
"-	c #F1F3F8",
";	c #EDEFF6",
">	c #DFE2EB",
",	c #F8F9FB",
"'	c #F3F5F9",
")	c #F0F1F8",
"!	c #E6E8F0",
"~	c #E7E9F1",
"{	c #FBFCFD",
"]	c #F7F8FB",
"^	c #F0F2F8",
"/	c #DCDFE9",
"(	c #F6F8FA",
"_	c #F9FAFC",
":	c #8C91A3",
"<	c #FAFBFC",
"[	c #EEF0F7",
"}	c #EBEDF4",
"|	c #CFD2DE",
"1	c #C9CDDA",
"2	c #C8CCD9",
"3	c #747885",
"4	c #CCD0DC",
"5	c #CACFDB",
"6	c #09C600",
"7	c #DBDEE8",
"8	c #D5D9E3",
"9	c #D4D7E3",
"0	c #D3D6E2",
"a	c #BCEA7E",
"b	c #098D00",
"c	c #E5E7F0",
"d	c #E0E3EC",
"e	c #D9DCE6",
"f	c #D6DAE4",
"g	c #E3E6EE",
"h	c #E1E4ED",
"i	c #E8EAF2",
"j	c #F5F6FA",
"k	c #F1F2F8",
"l	c #EAEDF3",
"m	c #D2D6E0",
" .++++++@#$%%         ",
" +&&&&&*=-;+>%        ",
" +&&&&&*,')+!~%       ",
" +&&&&&&{]'+^{/%      ",
" +&&&&&&{,'+,&(~%     ",
" +&&&&&&{_=:::::::    ",
" +&&&&&&*<][[}|123    ",
" +&&&&&&*{]-}>.453    ",
" +&&&&&6666~>78903    ",
" +&&&&&6aabcd7eef3    ",
" +&&&&&6aab~cgd>/3    ",
" +&&6666aabbbbhh>3    ",
" +&*6aaaaaaaabcgh3    ",
" +&(6aaaaaaaab~cc3    ",
" +&]bbb6aabbbb~!g3    ",
" +&]]](6aab;;}i~c3    ",
" +&]]](6aab;;}i~c3    ",
" +&]]](bbbb;;}i~c3    ",
" +&]]](='--;;}~~c3    ",
" +&===j'--k;}l~!g3    ",
" +&{{{__(='-^[}l~3    ",
" m3333333333333333    "};
