/* XPM */
static char * hi22_action_filesave_xpm[] = {
"22 22 214 2",
"  	c None",
". 	c #A2A2C5",
"+ 	c #8787AE",
"@ 	c #8585AD",
"# 	c #D6D6E9",
"$ 	c #8181A9",
"% 	c #8585AF",
"& 	c #9D9DC3",
"* 	c #9E9EC3",
"= 	c #B1B1D2",
"- 	c #D5D5E8",
"; 	c #9090B9",
"> 	c #9393BB",
", 	c #8C8CB6",
"' 	c #7474A0",
") 	c #7D7DAA",
"! 	c #9494BE",
"~ 	c #7F7FA9",
"{ 	c #D4D4E8",
"] 	c #8989B3",
"^ 	c #FEFEFF",
"/ 	c #E7E7F3",
"( 	c #8686B2",
"_ 	c #9090BA",
": 	c #8080AE",
"< 	c #656596",
"[ 	c #676799",
"} 	c #8383B3",
"| 	c #7A7AA5",
"1 	c #D3D3E7",
"2 	c #8686B1",
"3 	c #E8E8F3",
"4 	c #E5E5F2",
"5 	c #7A7AAB",
"6 	c #7B7BAC",
"7 	c #7373A6",
"8 	c #58588D",
"9 	c #67679D",
"0 	c #8181B2",
"a 	c #9393BD",
"b 	c #B6B6D5",
"c 	c #D1D1E6",
"d 	c #71719F",
"e 	c #FEFEFE",
"f 	c #E3E3F0",
"g 	c #6F6FA4",
"h 	c #6E6EA3",
"i 	c #8282B3",
"j 	c #4F4F89",
"k 	c #64649D",
"l 	c #7878A6",
"m 	c #D0D0E6",
"n 	c #D0D0E5",
"o 	c #7E7EAC",
"p 	c #FDFDFE",
"q 	c #DBE8F3",
"r 	c #65659B",
"s 	c #8080B2",
"t 	c #C7C7E0",
"u 	c #4B4B86",
"v 	c #6B6B9B",
"w 	c #C3C3DE",
"x 	c #7A7AA9",
"y 	c #E6E6F2",
"z 	c #66669C",
"A 	c #8585B6",
"B 	c #7D7DB0",
"C 	c #BDBDDA",
"D 	c #51518C",
"E 	c #8787B5",
"F 	c #9A9AC3",
"G 	c #C1C1DC",
"H 	c #646496",
"I 	c #F1F2F9",
"J 	c #F9F9FB",
"K 	c #4F4F87",
"L 	c #6A6A9D",
"M 	c #A9A9CD",
"N 	c #ABABCE",
"O 	c #5E5E91",
"P 	c #8484B3",
"Q 	c #FCFCFD",
"R 	c #E1E1EF",
"S 	c #626299",
"T 	c #7E7EB1",
"U 	c #CDCDE4",
"V 	c #454580",
"W 	c #5D5D92",
"X 	c #A1A1C8",
"Y 	c #A3A3C9",
"Z 	c #A1A1C9",
"` 	c #8E8EBB",
" .	c #6B6BA0",
"..	c #58588E",
"+.	c #9797C1",
"@.	c #7A7AAE",
"#.	c #BCBCDA",
"$.	c #4E4E89",
"%.	c #7D7DAF",
"&.	c #9898C3",
"*.	c #9C9CC5",
"=.	c #9D9DC6",
"-.	c #9A9AC4",
";.	c #9999C3",
">.	c #9E9EC7",
",.	c #64649B",
"'.	c #515189",
").	c #9494C0",
"!.	c #4A4A84",
"~.	c #7B7BAF",
"{.	c #BDBDDB",
"].	c #484884",
"^.	c #54548C",
"/.	c #9090BD",
"(.	c #595990",
"_.	c #4F4F86",
":.	c #9696C1",
"<.	c #9393BF",
"[.	c #9191BE",
"}.	c #8D8DBB",
"|.	c #7777AB",
"1.	c #63639B",
"2.	c #4B4B85",
"3.	c #7C7CB0",
"4.	c #CBCBE3",
"5.	c #353570",
"6.	c #51518A",
"7.	c #8686B7",
"8.	c #7A7AAD",
"9.	c #8383B4",
"0.	c #EBEBF4",
"a.	c #9F9FC8",
"b.	c #55558E",
"c.	c #5A5A93",
"d.	c #6B6BA1",
"e.	c #8A8AB9",
"f.	c #8181B3",
"g.	c #7F7FB2",
"h.	c #7676AB",
"i.	c #7070A7",
"j.	c #BFBFDC",
"k.	c #52528D",
"l.	c #7575A9",
"m.	c #7474A9",
"n.	c #5B5B94",
"o.	c #A2A2CA",
"p.	c #F1F1F8",
"q.	c #EFEFF7",
"r.	c #D8D8EB",
"s.	c #8A8ABA",
"t.	c #4F4F8A",
"u.	c #7C7CAF",
"v.	c #7474AA",
"w.	c #6F6FA6",
"x.	c #BBBBD9",
"y.	c #464683",
"z.	c #36366E",
"A.	c #51518B",
"B.	c #F4F4F9",
"C.	c #EAEAF4",
"D.	c #DBDBEC",
"E.	c #E4E4F1",
"F.	c #EDEDF6",
"G.	c #585892",
"H.	c #42427E",
"I.	c #4A4A86",
"J.	c #61619B",
"K.	c #6B6BA3",
"L.	c #454582",
"M.	c #63639C",
"N.	c #4A4A85",
"O.	c #484883",
"P.	c #F2F2F8",
"Q.	c #D7D7EA",
"R.	c #CFCFE5",
"S.	c #BEBEDC",
"T.	c #5A5A94",
"U.	c #8888B9",
"V.	c #8484B6",
"W.	c #40407C",
"X.	c #63639D",
"Y.	c #5C5C97",
"Z.	c #4C4C88",
"`.	c #A9A9CF",
" +	c #C5C5DF",
".+	c #BABAD8",
"++	c #8D8DBC",
"@+	c #4B4B87",
"#+	c #8E8EBD",
"$+	c #565692",
"%+	c #555591",
"&+	c #BBBBDA",
"*+	c #444481",
"=+	c #474783",
"-+	c #A9A9CE",
";+	c #8787B8",
">+	c #8B8BBB",
",+	c #575793",
"'+	c #C9C9E1",
")+	c #363673",
"!+	c #6E6EA5",
"~+	c #494986",
"{+	c #494985",
"]+	c #9797C3",
"^+	c #3A3A77",
"/+	c #545490",
"(+	c #494987",
"_+	c #6C6CA4",
":+	c #484885",
"<+	c #434381",
"[+	c #474784",
"}+	c #424280",
"|+	c #6B6BA4",
"1+	c #5B5B97",
"          . +                               ",
"          @ # $ % &                         ",
"        * = - ; > , ' ) !                   ",
"        ~ { { ] ^ / ( _ : < [ }             ",
"        | 1 2 3 ^ ^ ^ ^ 4 5 6 7 8 9 0       ",
"      a b c d e ^ ^ ^ ^ ^ ^ ^ f g h i j k   ",
"      l m n o ^ ^ ^ ^ ^ ^ ^ ^ p q r s t u   ",
"      v w x y ^ ^ ^ ^ ^ ^ ^ ^ ^ z A B C D   ",
"    E F G H I ^ ^ ^ ^ ^ ^ ^ ^ J K i C u     ",
"    L M N O P Q ^ ^ ^ ^ ^ ^ ^ R S T U V     ",
"    W X Y Z `  ...+.^ ^ ^ ^ ^ S s @.#.$.    ",
"  %.A &.*.=.-.;.>.i ,.'.).^ R !.~.{.].      ",
"  ^././.(._.9 :.<./.[.}.|.1.2.3.3.4.5.      ",
"  6.7.8.9.0.a.b.c.d.i e.f.g.@.h.i.j.k.      ",
"l.m.%.n.o.^ p.q.r.s.j t.u.|.v.w.x.y.        ",
"z.l.w.A.B.C.D.E.F.R 7.G.H.I.J.K.4.L.        ",
"M.N.K.O.P.Q.Q.R.t S.T.U.V.W.X.M.#.Y.        ",
"  i.Z.].Z.`. +{..+++@+g.#+$+%+&+*+          ",
"        w.@+=+I.-+I.;+>+*+,+%+'+)+          ",
"              !+~+L.{+]+^+%+/+.+(+          ",
"                    _+:+<+[+}+}+            ",
"                          |+}+1+            "};
