/* XPM */
static char * hi22_action_fileclose_xpm[] = {
"22 22 101 2",
"  	c None",
". 	c #3B3B5A",
"+ 	c #3A3A59",
"@ 	c #393958",
"# 	c #3C3C5C",
"$ 	c #414160",
"% 	c #474766",
"& 	c #464665",
"* 	c #3F3F5F",
"= 	c #363654",
"- 	c #3E3E5E",
"; 	c #737391",
"> 	c #C2C2D2",
", 	c #EBEBF0",
"' 	c #F5F5F7",
") 	c #CCCCDA",
"! 	c #8686A1",
"~ 	c #353553",
"{ 	c #4E4E6E",
"] 	c #BFBFD0",
"^ 	c #E6E6ED",
"/ 	c #C9C9D7",
"( 	c #5C5C7C",
"_ 	c #333351",
": 	c #4D4D6D",
"< 	c #BDBDCE",
"[ 	c #D6D6E1",
"} 	c #D3D3DF",
"| 	c #CDCDDA",
"1 	c #585878",
"2 	c #323250",
"3 	c #9F9FB7",
"4 	c #C5C5D4",
"5 	c #B9B9CB",
"6 	c #F3F3F6",
"7 	c #BABACB",
"8 	c #FEFEFF",
"9 	c #DCDCE5",
"0 	c #B4B4C7",
"a 	c #3D3D5D",
"b 	c #31314F",
"c 	c #626281",
"d 	c #B7B7C9",
"e 	c #E4E4EC",
"f 	c #B3B3C6",
"g 	c #727290",
"h 	c #2F2F4D",
"i 	c #8585A0",
"j 	c #A2A2B9",
"k 	c #DBDBE5",
"l 	c #DEDEE7",
"m 	c #AEAEC2",
"n 	c #7E7E9A",
"o 	c #636382",
"p 	c #525272",
"q 	c #8B8BA6",
"r 	c #9090AA",
"s 	c #D5D5E0",
"t 	c #E0E0E8",
"u 	c #5D5D7D",
"v 	c #383857",
"w 	c #2E2E4C",
"x 	c #CECEDB",
"y 	c #2D2D4B",
"z 	c #6B6B8A",
"A 	c #9999B1",
"B 	c #C0C0D0",
"C 	c #2C2C49",
"D 	c #595979",
"E 	c #9292AC",
"F 	c #2B2B48",
"G 	c #535373",
"H 	c #545474",
"I 	c #8F8FA9",
"J 	c #4A4A6A",
"K 	c #575777",
"L 	c #E1E1E9",
"M 	c #9898B0",
"N 	c #2A2A47",
"O 	c #60607F",
"P 	c #646483",
"Q 	c #A0A0B7",
"R 	c #E3E3EB",
"S 	c #6E6E8C",
"T 	c #C7C7D6",
"U 	c #343452",
"V 	c #70708E",
"W 	c #9F9FB6",
"X 	c #7A7A97",
"Y 	c #A8A8BD",
"Z 	c #444463",
"` 	c #292946",
" .	c #787895",
"..	c #7D7D99",
"+.	c #777794",
"@.	c #494969",
"#.	c #676786",
"$.	c #8989A3",
"%.	c #656584",
"&.	c #484868",
"*.	c #616180",
"                                            ",
"                  . + + @                   ",
"            # . # $ % & * @ = =             ",
"          # - ; > , ' ' ' ) ! @ ~           ",
"        # { ] ^ ^ ^ ^ ^ ^ ^ ^ / ( _         ",
"      # : < [ } [ [ [ [ [ [ } [ | 1 2       ",
"    # - 3 4 5 6 , 4 4 4 4 7 8 9 4 0 a b     ",
"    . c 0 d 6 8 8 e 0 0 f 8 8 8 ) 0 g h     ",
"    # i j j k 8 8 8 l m 8 8 8 e n o p 2     ",
"  . $ q r r r s 8 8 8 8 8 8 t u p p p v w   ",
"  + & n n n n n x 8 8 8 8 t u p p p p $ y   ",
"  @ & z z z z z A 8 8 8 8 B p p p p p * C   ",
"  @ * D D D D E 8 8 8 8 8 8 B p p p p ~ F   ",
"    @ G H H I 8 8 8 t B 8 8 8 B G G G y     ",
"    = J K z 8 8 8 L c K > 8 8 8 M K % N     ",
"    = + O P Q 8 R S P P P T 8 T P O 2 N     ",
"      U J V V W X V V V V V Y V V Z `       ",
"        _ {  .................+.@.`         ",
"          2 . #.$.$.$.$.$.$.%.= `           ",
"            b h = &.*.O & 2 N N             ",
"                  w y F F                   ",
"                                            "};
