/* XPM */
static char * hi22_action_addmatchingfiles_xpm[] = {
"22 22 225 2",
"  	c None",
". 	c #F7941D",
"+ 	c #FFFF32",
"@ 	c #FFFF66",
"# 	c #8088BA",
"$ 	c #868EBD",
"% 	c #FFFF1A",
"& 	c #F7D11D",
"* 	c #FFFF98",
"= 	c #8B93C0",
"- 	c #D7D9EC",
"; 	c #E9EAF6",
"> 	c #757FB6",
", 	c #FFFF5D",
"' 	c #FFFF8C",
") 	c #FFFFB6",
"! 	c #FFFFCC",
"~ 	c #868FBC",
"{ 	c #B5B9D8",
"] 	c #F3F4FB",
"^ 	c #EEEEF9",
"/ 	c #F0F0FA",
"( 	c #BDC2DF",
"_ 	c #FFFFFF",
": 	c #99A1C7",
"< 	c #E3E5F3",
"[ 	c #F7F7FE",
"} 	c #F2F2FB",
"| 	c #EAEAF7",
"1 	c #EEEFF9",
"2 	c #8089BD",
"3 	c #788DC3",
"4 	c #C1C5DF",
"5 	c #F8F9FF",
"6 	c #F9F9FF",
"7 	c #F6F6FE",
"8 	c #E6E6F5",
"9 	c #DCDFF0",
"0 	c #6570AF",
"a 	c #FEFEFF",
"b 	c #6A91D6",
"c 	c #3C6FC8",
"d 	c #396CC7",
"e 	c #386AC6",
"f 	c #3C6EC7",
"g 	c #164AB2",
"h 	c #003CB2",
"i 	c #0037B0",
"j 	c #5D88D2",
"k 	c #5185D6",
"l 	c #C4E3FF",
"m 	c #B7DAFF",
"n 	c #AED5FF",
"o 	c #A6D0FF",
"p 	c #A7D1FF",
"q 	c #7598E5",
"r 	c #002FAC",
"s 	c #1960C7",
"t 	c #477ED1",
"u 	c #4278CE",
"v 	c #4175CD",
"w 	c #2F68C6",
"x 	c #5286D6",
"y 	c #B9DEFF",
"z 	c #7CBBFF",
"A 	c #6CB0FF",
"B 	c #5DA6FF",
"C 	c #529EFF",
"D 	c #3F7EEB",
"E 	c #1941C4",
"F 	c #002DAB",
"G 	c #4882D5",
"H 	c #F7FFFF",
"I 	c #EDFFFF",
"J 	c #E2FBFF",
"K 	c #D7F4FF",
"L 	c #CCECFF",
"M 	c #C1E4FF",
"N 	c #B1DAFF",
"O 	c #84C1FF",
"P 	c #74B6FF",
"Q 	c #65ACFF",
"R 	c #4F97FA",
"S 	c #3267DC",
"T 	c #1F46C6",
"U 	c #2148C7",
"V 	c #002CAB",
"W 	c #4780D4",
"X 	c #F6FFFF",
"Y 	c #CFEAF9",
"Z 	c #CEEBF9",
"` 	c #D9FAFF",
" .	c #C4ECFF",
"..	c #ACDAFF",
"+.	c #92C5FF",
"@.	c #82B8FE",
"#.	c #6FA9FA",
"$.	c #5C9AF7",
"%.	c #4D8DF3",
"&.	c #336CE3",
"*.	c #204BCD",
"=.	c #002AA9",
"-.	c #467ED2",
";.	c #F5FFFF",
">.	c #E3FFFF",
",.	c #D2FBFF",
"'.	c #ABD2F3",
").	c #B0DCFF",
"!.	c #99CBFF",
"~.	c #87BBFE",
"{.	c #74ABF9",
"].	c #6099F5",
"^.	c #4B87F0",
"/.	c #3674EB",
"(.	c #2964E2",
"_.	c #2254D7",
":.	c #204ACB",
"<.	c #1C42C5",
"[.	c #0C35BD",
"}.	c #0029A8",
"|.	c #457DD1",
"1.	c #EFFFFF",
"2.	c #DAFDFF",
"3.	c #B8EAFF",
"4.	c #A1D6FF",
"5.	c #8FC1F8",
"6.	c #93C6FF",
"7.	c #82B7FD",
"8.	c #6FA6F8",
"9.	c #5B94F4",
"0.	c #4682EF",
"a.	c #316FEA",
"b.	c #255FE0",
"c.	c #2052D5",
"d.	c #2049CA",
"e.	c #143CC1",
"f.	c #0633BD",
"g.	c #083CC8",
"h.	c #0028A7",
"i.	c #427BD1",
"j.	c #E6FFFF",
"k.	c #BDEDFF",
"l.	c #ADE2FF",
"m.	c #9ED7FF",
"n.	c #87BFFA",
"o.	c #82B7F9",
"p.	c #7CB2FB",
"q.	c #68A2F8",
"r.	c #5490F4",
"s.	c #3F7DEF",
"t.	c #2B6AE9",
"u.	c #225CDF",
"v.	c #1D4DD0",
"w.	c #0A35BD",
"x.	c #0838C3",
"y.	c #093FCB",
"z.	c #083ECB",
"A.	c #0025A6",
"B.	c #437BD0",
"C.	c #E2F9FF",
"D.	c #D1F3FF",
"E.	c #CAECFF",
"F.	c #BFE3FF",
"G.	c #B1D7FF",
"H.	c #A1C3F6",
"I.	c #9FC3F8",
"J.	c #90B5F3",
"K.	c #80A6EE",
"L.	c #7097E9",
"M.	c #6288E3",
"N.	c #587AD7",
"O.	c #4C67C7",
"P.	c #4C66C5",
"Q.	c #4A65C5",
"R.	c #4762C4",
"S.	c #4560C2",
"T.	c #0027A6",
"U.	c #457ACF",
"V.	c #FDFDFF",
"W.	c #F7F7FB",
"X.	c #F0F0F7",
"Y.	c #EBEBF3",
"Z.	c #E4E4EE",
"`.	c #DFDFEA",
" +	c #D9D9E5",
".+	c #D2D2E1",
"++	c #CDCDDC",
"@+	c #C6C6D7",
"#+	c #C0C0D2",
"$+	c #BABACE",
"%+	c #B5B5CA",
"&+	c #002BA7",
"*+	c #4379CE",
"=+	c #FAFAFE",
"-+	c #F4F4F9",
";+	c #EEEEF5",
">+	c #E8E8F0",
",+	c #E2E2EC",
"'+	c #DBDBE8",
")+	c #D6D6E3",
"!+	c #CFCFDF",
"~+	c #CACAD9",
"{+	c #C3C3D5",
"]+	c #BDBDD0",
"^+	c #B7B7CC",
"/+	c #0029A6",
"(+	c #4378CE",
"_+	c #D8D8E5",
":+	c #D2D2E0",
"<+	c #CCCCDB",
"[+	c #0027A5",
"}+	c #4276CD",
"|+	c #F9F9FD",
"1+	c #EFEFF4",
"2+	c #E5E6EB",
"3+	c #DBDCE3",
"4+	c #D1D2DA",
"5+	c #C8CAD1",
"6+	c #BFC0CA",
"7+	c #B5B7C1",
"8+	c #ADAEBA",
"9+	c #A8ABB7",
"0+	c #A4A6B3",
"a+	c #0025A4",
"b+	c #002186",
"          .                                 ",
"        . + .                               ",
"  . .   . @ .   . .           # $           ",
". % & . & * & . & % .       = - ; >         ",
"  . , ' ) ! ) ' , .     ~ { ] ^ / (         ",
"    . & ! _ ! & .     : < [ } ^ | 1 2       ",
"    . & ! _ ! & . 3 4 5 6 7 } ^ | 8 9 0     ",
"  . , ' ) ! ) ' , . _ a 6 7 b c d e f g h i ",
". % & . & * & . & % . a 6 j k l m n o p q r ",
"  . . s . @ . t . . u v w x y z A B C D E F ",
"      G . + . H I J K L M N O P Q R S T U V ",
"      W X . Y Z `  ...+.@.#.$.%.&.*.T T U =.",
"      -.;.>.,.'.).!.~.{.].^./.(._.:.T <.[.}.",
"      |.1.2.3.4.5.6.7.8.9.0.a.b.c.d.e.f.g.h.",
"      i.j.k.l.m.n.o.p.q.r.s.t.u.v.w.x.y.z.A.",
"      B.C.D.E.F.G.H.I.J.K.L.M.N.O.P.Q.R.S.T.",
"      U._ _ _ _ V.W.X.Y.Z.`. +.+++@+#+$+%+&+",
"      *+_ _ _ _ _ =+-+;+>+,+'+)+!+~+{+]+^+/+",
"      (+_ _ _ _ _ V.W.X.Y.Z.`._+:+<+@+#+$+[+",
"      }+_ _ _ _ _ _ |+1+2+3+4+5+6+7+8+9+0+a+",
"      b+b+b+b+b+b+b+b+b+b+b+b+b+b+b+b+b+b+b+",
"                                            "};
