/* XPM */
static char * hi22_action_filesaveas_xpm[] = {
"22 22 257 2",
"  	c None",
". 	c #6C759A",
"+ 	c #6B759A",
"@ 	c #6A7499",
"# 	c #697398",
"$ 	c #687298",
"% 	c #677197",
"& 	c #667197",
"* 	c #657097",
"= 	c #636E95",
"- 	c #626D95",
"; 	c #626D94",
"> 	c #616C94",
", 	c #5F6B93",
"' 	c #5E6A93",
") 	c #5E6A92",
"! 	c #F23332",
"~ 	c #BBC6DC",
"{ 	c #B9C5DB",
"] 	c #FDFDFE",
"^ 	c #E9ECF7",
"/ 	c #ECEFF8",
"( 	c #F0F2F9",
"_ 	c #8193BA",
": 	c #7F91B9",
"< 	c #364274",
"[ 	c #9A6040",
"} 	c #FE6B2B",
"| 	c #F7692C",
"1 	c #B9C4DB",
"2 	c #B8C3DA",
"3 	c #5A6EA2",
"4 	c #FCFCFD",
"5 	c #F8F9FC",
"6 	c #F4F6FB",
"7 	c #747C89",
"8 	c #BAB9C0",
"9 	c #935937",
"0 	c #FF752D",
"a 	c #6B749A",
"b 	c #B5C1D8",
"c 	c #B4C0D8",
"d 	c #B9C5DE",
"e 	c #B5C3DA",
"f 	c #FBFCFD",
"g 	c #F6F7FB",
"h 	c #F0F3FA",
"i 	c #EEF1F9",
"j 	c #7D8FB8",
"k 	c #586580",
"l 	c #F4F4F5",
"m 	c #E8F0FB",
"n 	c #66666B",
"o 	c #7E4020",
"p 	c #B1BED7",
"q 	c #B0BDD6",
"r 	c #B8C5DB",
"s 	c #B7C4DB",
"t 	c #F2F4FA",
"u 	c #E9EDF6",
"v 	c #E2E7F3",
"w 	c #B19140",
"x 	c #BCAB5E",
"y 	c #9DADB6",
"z 	c #A5A5A6",
"A 	c #4D5155",
"B 	c #697399",
"C 	c #ADBAD4",
"D 	c #ACB9D4",
"E 	c #F9F9FD",
"F 	c #FAFAFD",
"G 	c #FBFBFD",
"H 	c #FCFCFE",
"I 	c #F7F8FC",
"J 	c #E9EBF0",
"K 	c #E6EAF5",
"L 	c #DFE4F1",
"M 	c #C4A864",
"N 	c #EBD652",
"O 	c #FA9338",
"P 	c #8E4543",
"Q 	c #44474A",
"R 	c #A7B5D1",
"S 	c #A3B1CE",
"T 	c #A0AECC",
"U 	c #9CABCB",
"V 	c #99A9C9",
"W 	c #94A5C5",
"X 	c #92A2C4",
"Y 	c #8E9EC1",
"Z 	c #899ABF",
"` 	c #8697BD",
" .	c #96A6C6",
"..	c #8192B9",
"+.	c #A7935F",
"@.	c #E9D04C",
"#.	c #FBA94F",
"$.	c #FF6A2A",
"%.	c #8F3E1A",
"&.	c #1C2125",
"*.	c #677298",
"=.	c #A5B2CF",
"-.	c #A4B1CF",
";.	c #9FAECC",
">.	c #9CABCA",
",.	c #9AA9C9",
"'.	c #8A9ABF",
").	c #8697BC",
"!.	c #8395BB",
"~.	c #8091B8",
"{.	c #A59363",
"].	c #E6CA46",
"^.	c #FCB254",
"/.	c #FF6527",
"(.	c #B95F25",
"_.	c #504743",
":.	c #677198",
"<.	c #9BABCA",
"[.	c #98A8C7",
"}.	c #95A4C5",
"|.	c #91A1C3",
"1.	c #8F9EC1",
"2.	c #8798BD",
"3.	c #9F936F",
"4.	c #E4C43F",
"5.	c #FCBB59",
"6.	c #FF6427",
"7.	c #C26126",
"8.	c #5E564F",
"9.	c #313C70",
"0.	c #667198",
"a.	c #9AAAC9",
"b.	c #9DACCB",
"c.	c #97A7C7",
"d.	c #93A2C4",
"e.	c #90A1C3",
"f.	c #8E9DC1",
"g.	c #8899BE",
"h.	c #8698BD",
"i.	c #8294BA",
"j.	c #989589",
"k.	c #E0BB36",
"l.	c #FCC760",
"m.	c #FE6326",
"n.	c #D06528",
"o.	c #5F5342",
"p.	c #56679D",
"q.	c #96A6C7",
"r.	c #F8F9FB",
"s.	c #F7F8FB",
"t.	c #F5F7FA",
"u.	c #F2F4F9",
"v.	c #F0F2F2",
"w.	c #EDF0F5",
"x.	c #E9EDF4",
"y.	c #DEB12D",
"z.	c #FCCE63",
"A.	c #FC6326",
"B.	c #D96729",
"C.	c #7B6B4A",
"D.	c #55669D",
"E.	c #516297",
"F.	c #2D3767",
"G.	c #EFF2F7",
"H.	c #F2F2E3",
"I.	c #DEE1E8",
"J.	c #FFEC78",
"K.	c #F96327",
"L.	c #E1692A",
"M.	c #675636",
"N.	c #A2ACBF",
"O.	c #42507C",
"P.	c #414F79",
"Q.	c #273059",
"R.	c #8F9FC2",
"S.	c #F6F7FA",
"T.	c #D9DFE5",
"U.	c #D6DDE4",
"V.	c #D4DCE3",
"W.	c #D1D9E1",
"X.	c #CDD6E0",
"Y.	c #CAD3DE",
"Z.	c #ACA298",
"`.	c #F2DC8D",
" +	c #DB6525",
".+	c #604A25",
"++	c #7E8B9E",
"@+	c #858D9F",
"#+	c #39466B",
"$+	c #39466D",
"%+	c #252D53",
"&+	c #656F97",
"*+	c #8B9CC1",
"=+	c #EEEFEF",
"-+	c #EBEEF5",
";+	c #E6EBF3",
">+	c #E2E7F1",
",+	c #22293C",
"'+	c #7B5541",
")+	c #7E5608",
"!+	c #848DA0",
"~+	c #858FA4",
"{+	c #8D97AD",
"]+	c #41507D",
"^+	c #445382",
"/+	c #2A3360",
"(+	c #F4F6FA",
"_+	c #D5DCE3",
":+	c #D2D9E2",
"<+	c #CFD7E0",
"[+	c #CBD4DE",
"}+	c #C6CFDC",
"|+	c #C4CEDA",
"1+	c #B6C2D6",
"2+	c #ABB9D2",
"3+	c #A6B6D0",
"4+	c #A2B2CF",
"5+	c #9FAFCC",
"6+	c #B3C1DF",
"7+	c #506299",
"8+	c #656F96",
"9+	c #8394BB",
"0+	c #D9E0ED",
"a+	c #C0CCE2",
"b+	c #BBC8DF",
"c+	c #B6C3DD",
"d+	c #B0BEDA",
"e+	c #ACBBD9",
"f+	c #AABAD7",
"g+	c #AFBEDD",
"h+	c #F1F3F8",
"i+	c #D2DBE3",
"j+	c #C3CEDC",
"k+	c #BCC7D9",
"l+	c #B5C2D6",
"m+	c #B0BED5",
"n+	c #A9B9D1",
"o+	c #A4B4CF",
"p+	c #A0B0CD",
"q+	c #9DADCB",
"r+	c #AEBCDB",
"s+	c #7E8FB7",
"t+	c #B0B8DC",
"u+	c #AEB6DA",
"v+	c #AAB3D8",
"w+	c #A7B1D6",
"x+	c #A3ADD4",
"y+	c #A0AAD2",
"z+	c #9BA7CF",
"A+	c #98A3CE",
"B+	c #95A1CC",
"C+	c #93A0CB",
"D+	c #929ECA",
"E+	c #909DC8",
"F+	c #4E5F98",
"G+	c #364173",
"H+	c #364273",
"  . + + @ # $ % & * = = - ; > , ' )     ! ! ",
". ~ { ] ^ / ( ] ] ] ] ] ] ] ] ] _ : < [ } | ",
"+ 1 2 ] 3 3 3 ] ] ] ] ] ] 4 5 6 _ : 7 8 9 0 ",
"a b c ] 3 d e ] ] ] ] ] f g h i j k l m n o ",
"@ p q ] 3 r s ] ] ] ] 5 t i u v w x y z A   ",
"B C D E F G H H H H I t J K L M N O P Q     ",
"$ R R S T U V W X Y Z `  ...+.@.#.$.%.&.    ",
"*.=.-.;.>.,.W X Y '.).!.~.{.].^./.(._.      ",
":.T ;.<.[.}.|.1.Z 2.!.~.3.4.5.6.7.8.9.      ",
"0.a.b.V c.d.e.f.g.h.i.j.k.l.m.n.o.p.9.      ",
"& c.q.r.r.s.t.u.v.w.x.y.z.A.B.C.D.E.F.      ",
"* X X s.s.t.u.G.H.x.I.J.K.L.M.N.O.P.Q.      ",
"* R.R.S.T.U.V.W.X.Y.Z.`. +.+++@+#+$+%+      ",
"&+*+*+t.t.u.=+-+;+>+,+'+)+!+~+{+]+^+/+      ",
"&+h.h.(+_+:+<+[+}+|+1+2+3+4+5+6+7+7+9.      ",
"8+9+9+u.u.G.-+;+0+a+b+c+d+e+f+g+7+7+9.      ",
"8+_ _ h+i+X.j+k+l+m+n+o+p+q+<.r+7+7+9.      ",
"8+s+s+t+t+u+v+w+x+y+z+A+B+C+D+E+F+F+G+      ",
"  H+H+H+H+G+G+G+G+G+G+G+G+G+G+G+G+G+        ",
"                                            ",
"                                            ",
"                                            "};
