/* XPM */
static char * hi22_action_configure_xpm[] = {
"22 22 162 2",
"  	c None",
". 	c #B8B8C7",
"+ 	c #C7C7D2",
"@ 	c #D9D9E1",
"# 	c #D0D0DA",
"$ 	c #C2C2CF",
"% 	c #B8B8C6",
"& 	c #B2B2C2",
"* 	c #CECED8",
"= 	c #FFFFFF",
"- 	c #ECECF0",
"; 	c #BBBBC9",
"> 	c #AAAABC",
", 	c #C9C9D4",
"' 	c #FAFAFB",
") 	c #B9B9C8",
"! 	c #A3A3B6",
"~ 	c #C4C4D0",
"{ 	c #F1F1F4",
"] 	c #A2A2B5",
"^ 	c #9999AE",
"/ 	c #9B9BAF",
"( 	c #FEFEFE",
"_ 	c #BCBCC9",
": 	c #9F9FB3",
"< 	c #A5A5B8",
"[ 	c #F2F2F5",
"} 	c #FBFBFC",
"| 	c #CDCDD7",
"1 	c #A5A5B7",
"2 	c #E1E1E7",
"3 	c #9191A7",
"4 	c #9E9EB1",
"5 	c #F5F5F7",
"6 	c #F4F4F6",
"7 	c #D1D1DA",
"8 	c #8A8AA2",
"9 	c #9D9DB1",
"0 	c #EFEFF2",
"a 	c #DADAE1",
"b 	c #8989A1",
"c 	c #9696AB",
"d 	c #E5E5EA",
"e 	c #EEEEF2",
"f 	c #B6B6C5",
"g 	c #E7E7EC",
"h 	c #E8E8ED",
"i 	c #D2D2DB",
"j 	c #DEDEE4",
"k 	c #9595AB",
"l 	c #72728F",
"m 	c #B5B5C4",
"n 	c #E2E2E8",
"o 	c #E2E2E7",
"p 	c #DEDEE5",
"q 	c #C8C8D3",
"r 	c #7A7A95",
"s 	c #71718E",
"t 	c #CECED7",
"u 	c #DBDBE3",
"v 	c #BEBECB",
"w 	c #C3C3CF",
"x 	c #D0A569",
"y 	c #E1AC30",
"z 	c #D5902B",
"A 	c #6E6E8C",
"B 	c #ABABBC",
"C 	c #D5D5DE",
"D 	c #D5D5DD",
"E 	c #CCCCD6",
"F 	c #CDA36B",
"G 	c #DB9D28",
"H 	c #E28B10",
"I 	c #E7B72C",
"J 	c #CE8B2A",
"K 	c #5B5B7C",
"L 	c #6D6D8B",
"M 	c #84849D",
"N 	c #9090A6",
"O 	c #81819A",
"P 	c #7B7B96",
"Q 	c #D6D6DE",
"R 	c #CDA46E",
"S 	c #D89A27",
"T 	c #E99010",
"U 	c #FD930B",
"V 	c #EE9310",
"W 	c #E5B32B",
"X 	c #C7852A",
"Y 	c #555578",
"Z 	c #6C6C8B",
"` 	c #C49C6B",
" .	c #D49727",
"..	c #ED9D14",
"+.	c #FDA314",
"@.	c #FFA414",
"#.	c #F1A015",
"$.	c #E4AF29",
"%.	c #BF7F2A",
"&.	c #AC7533",
"*.	c #CB912A",
"=.	c #F3AC1A",
"-.	c #FEB21D",
";.	c #FFB31D",
">.	c #F5AC1A",
",.	c #E2AB27",
"'.	c #B87A29",
").	c #B37529",
"!.	c #E2A827",
"~.	c #FFC226",
"{.	c #FFC327",
"].	c #FFBD24",
"^.	c #FFBD23",
"/.	c #FCBA21",
"(.	c #E3A626",
"_.	c #B17429",
":.	c #AB6F29",
"<.	c #DFA526",
"[.	c #FFD02E",
"}.	c #FFD230",
"|.	c #FFB61F",
"1.	c #FFA615",
"2.	c #FFA112",
"3.	c #DA9A24",
"4.	c #AA6F29",
"5.	c #A46928",
"6.	c #DCA126",
"7.	c #FFDE37",
"8.	c #FFAA18",
"9.	c #FF9108",
"0.	c #FF9C10",
"a.	c #FF940A",
"b.	c #FFB21B",
"c.	c #AF7326",
"d.	c #9D6328",
"e.	c #D99D25",
"f.	c #FFB51E",
"g.	c #FF8904",
"h.	c #FF9209",
"i.	c #FF930A",
"j.	c #FFA915",
"k.	c #B57624",
"l.	c #965E28",
"m.	c #D78719",
"n.	c #FFA514",
"o.	c #FFCC2C",
"p.	c #FFA816",
"q.	c #FF9E10",
"r.	c #F89D12",
"s.	c #9C6326",
"t.	c #8E5827",
"u.	c #CD7B18",
"v.	c #FF950B",
"w.	c #FF960B",
"x.	c #F8930D",
"y.	c #AA6820",
"z.	c #8E5927",
"A.	c #875327",
"B.	c #955A23",
"C.	c #A4621F",
"D.	c #8E5725",
"E.	c #885427",
"        . + @ # $ %                         ",
"        & * = = = - ;                       ",
"          > , = = = ' )                     ",
"            ! ~ = = = { ]                   ",
"^             / # = = ( _                   ",
": ^           < [ } } } |                   ",
"1 2 3       4 - 5 5 6 6 7 8                 ",
"9 0 a b   c d e e e e e f                   ",
"b g h i ^ j h h h h h h k                   ",
"l m n n n n o o o o p q ~ r                 ",
"  s t u u u u u u @ v ; w x y z             ",
"    A B 7 C C D D E + E F G H I J           ",
"      K L M N O P + Q R S T U V W X         ",
"            Y     Z `  ...+.@.@.#.$.%.      ",
"                  &.*.=.-.;.;.;.;.>.,.'.    ",
"                    ).!.~.~.{.{.].^./.(._.  ",
"                      :.<.[.}.{.|.1.2.;.3.4.",
"                        5.6.7.|.8.9.0.a.b.c.",
"                          d.e.;.f.g.h.i.j.k.",
"                            l.m.n.o.p.q.r.s.",
"                              t.u.v.w.x.y.z.",
"                                A.B.C.D.E.  "};
