/* XPM */
static char * hi22_action_fileopen_xpm[] = {
"22 22 272 2",
"  	c None",
". 	c #757DC8",
"+ 	c #7A83CA",
"@ 	c #8990D1",
"# 	c #D7DAF4",
"$ 	c #DCDFF6",
"% 	c #6A74C3",
"& 	c #BDC0E8",
"* 	c #F5F5FF",
"= 	c #EAEAFB",
"- 	c #EFEFFD",
"; 	c #979EDA",
"> 	c #1F61D7",
", 	c #6FA1ED",
"' 	c #6D9FED",
") 	c #679CED",
"! 	c #6298EB",
"~ 	c #5C94EB",
"{ 	c #084BD0",
"] 	c #7F88CB",
"^ 	c #9FA4DB",
"/ 	c #E4E6FA",
"( 	c #F3F3FF",
"_ 	c #EFEFFE",
": 	c #E6E6FA",
"< 	c #EEEEFD",
"[ 	c #6A74C6",
"} 	c #3D76DE",
"| 	c #CCF5FF",
"1 	c #C6F1FF",
"2 	c #BEEEFF",
"3 	c #B8EAFF",
"4 	c #B1E5FF",
"5 	c #96C1F6",
"6 	c #7788D0",
"7 	c #C9CCED",
"8 	c #FDFDFF",
"9 	c #F8F8FF",
"0 	c #F2F2FF",
"a 	c #E5E5F9",
"b 	c #C2C8ED",
"c 	c #455ABF",
"d 	c #3C75DD",
"e 	c #B4E4FF",
"f 	c #97AEE4",
"g 	c #A3AADC",
"h 	c #F5F6FF",
"i 	c #FFFFFF",
"j 	c #FCFCFF",
"k 	c #E3E3F8",
"l 	c #828BD1",
"m 	c #3973DC",
"n 	c #AED0F6",
"o 	c #939DD6",
"p 	c #DFE1F6",
"q 	c #D5DAF6",
"r 	c #668ADF",
"s 	c #6689DE",
"t 	c #6184DC",
"u 	c #1D46C0",
"v 	c #002FC1",
"w 	c #002DBF",
"x 	c #002CBE",
"y 	c #3670DC",
"z 	c #A0B8E8",
"A 	c #CDD2EF",
"B 	c #DADFF9",
"C 	c #2057D0",
"D 	c #6493EA",
"E 	c #86B0F6",
"F 	c #84AEF6",
"G 	c #81ABF4",
"H 	c #74A0F1",
"I 	c #6F9CF1",
"J 	c #0029BD",
"K 	c #336EDC",
"L 	c #A2D3FE",
"M 	c #4771D2",
"N 	c #7EA6ED",
"O 	c #7DA3ED",
"P 	c #7AA1EA",
"Q 	c #779EE8",
"R 	c #759AE7",
"S 	c #7397E6",
"T 	c #6F94E4",
"U 	c #6D90E3",
"V 	c #2258D1",
"W 	c #74A0EF",
"X 	c #7AB5FF",
"Y 	c #4796FF",
"Z 	c #4594FF",
"` 	c #4C9CFF",
" .	c #1D6BF0",
"..	c #0028CC",
"+.	c #0028BD",
"@.	c #306CDB",
"#.	c #518FE9",
"$.	c #6796E7",
"%.	c #ACC1F1",
"&.	c #BDD5FB",
"*.	c #B3D3FA",
"=.	c #AACDF9",
"-.	c #A1C7F9",
";.	c #97BFF8",
">.	c #8DBAF6",
",.	c #85B2F6",
"'.	c #89B6FB",
").	c #82BBFF",
"!.	c #4C99FF",
"~.	c #4696FF",
"{.	c #397DF6",
"].	c #0732D0",
"^.	c #0026C0",
"/.	c #2D6ADA",
"(.	c #0D52D3",
"_.	c #E7F6FF",
":.	c #D4E0FA",
"<.	c #E3F3FF",
"[.	c #E1FFFF",
"}.	c #CCF2FF",
"|.	c #B8E5FF",
"1.	c #99CCFF",
"2.	c #81BBFF",
"3.	c #6DABFF",
"4.	c #599CFF",
"5.	c #478CFC",
"6.	c #3377F5",
"7.	c #2964E9",
"8.	c #1039D3",
"9.	c #001FC8",
"0.	c #0017C9",
"a.	c #0024BD",
"b.	c #2966DA",
"c.	c #85BBF6",
"d.	c #4A7FE1",
"e.	c #F0FEFF",
"f.	c #D9F6FF",
"g.	c #B2D0F1",
"h.	c #C7EEFF",
"i.	c #A1D2FF",
"j.	c #7DB3FF",
"k.	c #659EFB",
"l.	c #508AF8",
"m.	c #3976F4",
"n.	c #2462F0",
"o.	c #1A52E7",
"p.	c #1142DC",
"q.	c #0128CB",
"r.	c #0022CA",
"s.	c #0015C8",
"t.	c #0019C6",
"u.	c #0024BA",
"v.	c #2765D9",
"w.	c #4684E4",
"x.	c #98BAF3",
"y.	c #E5FCFF",
"z.	c #C2EFFF",
"A.	c #9CD2FF",
"B.	c #8ABEFC",
"C.	c #88BDFF",
"D.	c #73ABFE",
"E.	c #5F98FB",
"F.	c #4884F6",
"G.	c #3270F3",
"H.	c #1C5BEE",
"I.	c #063DDD",
"J.	c #0133D7",
"K.	c #0133D6",
"L.	c #0025CF",
"M.	c #001CC0",
"N.	c #0023B8",
"O.	c #2562D7",
"P.	c #BEEAFF",
"Q.	c #195AD4",
"R.	c #EFFEFF",
"S.	c #BFEAFF",
"T.	c #A6DDFF",
"U.	c #94D2FF",
"V.	c #78B1FA",
"W.	c #79B1FD",
"X.	c #6CA6FD",
"Y.	c #5792FA",
"Z.	c #427FF6",
"`.	c #2261EE",
" +	c #0443E4",
".+	c #0341E4",
"++	c #033BDE",
"@+	c #001FBC",
"#+	c #2260D7",
"$+	c #7AB1F2",
"%+	c #5788E3",
"&+	c #D7F2FF",
"*+	c #CBEEFF",
"=+	c #BFE5FF",
"-+	c #B2DAFF",
";+	c #A2CAFE",
">+	c #93B8F8",
",+	c #8FB5F9",
"'+	c #7EA4F5",
")+	c #658DED",
"!+	c #4F78E7",
"~+	c #4571E7",
"{+	c #436AE0",
"]+	c #4160D7",
"^+	c #3D59D1",
"/+	c #344FCB",
"(+	c #1F3CC6",
"_+	c #001FB7",
":+	c #1E5DD6",
"<+	c #3A77DF",
"[+	c #B0C8F6",
"}+	c #FAFAFF",
"|+	c #F2F2FD",
"1+	c #EDEDFA",
"2+	c #E6E6F6",
"3+	c #DFDFF2",
"4+	c #D9D9EF",
"5+	c #D3D3EB",
"6+	c #CBCBE7",
"7+	c #C6C6E4",
"8+	c #BEBEE0",
"9+	c #B8B8DC",
"0+	c #B2B2D9",
"a+	c #6075CA",
"b+	c #001EB6",
"c+	c #1353D2",
"d+	c #1A58D2",
"e+	c #F6F6FF",
"f+	c #F0F0FB",
"g+	c #E8E8F8",
"h+	c #E3E3F4",
"i+	c #DCDCF1",
"j+	c #D5D5ED",
"k+	c #CFCFE9",
"l+	c #C8C8E6",
"m+	c #C1C1E1",
"n+	c #BCBCDE",
"o+	c #B4B4DB",
"p+	c #244AC1",
"q+	c #0039C7",
"r+	c #6A93E6",
"s+	c #F9F9FF",
"t+	c #EFF0FA",
"u+	c #E6E6F4",
"v+	c #DCDDEF",
"w+	c #D3D4E8",
"x+	c #CACBE3",
"y+	c #C0C1DD",
"z+	c #B8BAD6",
"A+	c #B0B1D1",
"B+	c #ABACCF",
"C+	c #A4A7CB",
"D+	c #0025B7",
"E+	c #003BC8",
"F+	c #2760D4",
"G+	c #376BD7",
"H+	c #3669D6",
"I+	c #3467D6",
"J+	c #3465D5",
"K+	c #3263D3",
"L+	c #2F60D1",
"M+	c #2C5BCF",
"N+	c #2857CB",
"O+	c #2553C9",
"P+	c #224FC5",
"Q+	c #1E4BC2",
"R+	c #1A46BF",
"S+	c #1842BD",
"T+	c #143DBA",
"U+	c #123BB7",
"V+	c #0731B6",
"W+	c #001BB5",
"                                            ",
"                                            ",
"                          . +               ",
"                        @ # $ %             ",
"                    + & * = - ;             ",
"> , ' ) ! ~ {   ] ^ / ( _ = : < [           ",
"} | 1 2 3 4 5 6 7 8 9 0 _ = : a b c         ",
"d | 1 2 e f g h i j 9 0 _ = : k < l         ",
"m | 1 n o p i i i j 9 0 _ = q r s t u v w x ",
"y | 1 z A i i i i j 9 0 _ B C D E F G H I J ",
"K | 1 L M N O P Q R S T U V W X Y Z `  ...+.",
"@.| 1 #.$.%.&.*.=.-.;.>.,.'.).!.Z ~.{.].^.  ",
"/.| 1 (._.:.<.[.}.|.1.2.3.4.5.6.7.8.9.0.a.  ",
"b.| c.d.e.f.g.h.i.j.k.l.m.n.o.p.q.r.s.t.u.  ",
"v.| w.x.y.z.A.B.C.D.E.F.G.H.I.J.K.L.s.M.N.  ",
"O.P.Q.R.S.T.U.V.W.X.Y.Z.`. +.+++K.L.s.@+    ",
"#+$+%+&+*+=+-+;+>+,+'+)+!+~+{+]+^+/+(+_+    ",
":+<+[+i i i }+|+1+2+3+4+5+6+7+8+9+0+a+b+    ",
"c+d+i i i i j e+f+g+h+i+j+k+l+m+n+o+p+      ",
"q+r+i i i i i s+t+u+v+w+x+y+z+A+B+C+D+      ",
"E+F+G+H+I+J+K+L+M+N+O+P+Q+R+S+T+U+V+W+      ",
"                                            "};
