/* XPM */
static char * hi22_action_directoryadd_xpm[] = {
"22 22 217 2",
"  	c None",
". 	c #09C600",
"+ 	c #BCEA7E",
"@ 	c #098D00",
"# 	c #8088BA",
"$ 	c #868EBD",
"% 	c #8B93C0",
"& 	c #D7D9EC",
"* 	c #E9EAF6",
"= 	c #757FB6",
"- 	c #868FBC",
"; 	c #B5B9D8",
"> 	c #F3F4FB",
", 	c #EEEEF9",
"' 	c #F0F0FA",
") 	c #BDC2DF",
"! 	c #99A1C7",
"~ 	c #E3E5F3",
"{ 	c #F7F7FE",
"] 	c #F2F2FB",
"^ 	c #EAEAF7",
"/ 	c #EEEFF9",
"( 	c #8089BD",
"_ 	c #F8F9FF",
": 	c #F9F9FF",
"< 	c #F6F6FE",
"[ 	c #E6E6F5",
"} 	c #DCDFF0",
"| 	c #6570AF",
"1 	c #FEFEFF",
"2 	c #6A91D6",
"3 	c #3C6FC8",
"4 	c #396CC7",
"5 	c #386AC6",
"6 	c #3C6EC7",
"7 	c #164AB2",
"8 	c #003CB2",
"9 	c #0037B0",
"0 	c #477FD4",
"a 	c #FFFFFF",
"b 	c #5D88D2",
"c 	c #5185D6",
"d 	c #C4E3FF",
"e 	c #B7DAFF",
"f 	c #AED5FF",
"g 	c #A6D0FF",
"h 	c #A7D1FF",
"i 	c #7598E5",
"j 	c #002FAC",
"k 	c #1960C7",
"l 	c #467CD1",
"m 	c #457ACF",
"n 	c #4278CE",
"o 	c #4175CD",
"p 	c #2F68C6",
"q 	c #5286D6",
"r 	c #B9DEFF",
"s 	c #7CBBFF",
"t 	c #6CB0FF",
"u 	c #5DA6FF",
"v 	c #529EFF",
"w 	c #3F7EEB",
"x 	c #1941C4",
"y 	c #002DAB",
"z 	c #4882D5",
"A 	c #EDFFFF",
"B 	c #E2FBFF",
"C 	c #D7F4FF",
"D 	c #CCECFF",
"E 	c #C1E4FF",
"F 	c #B1DAFF",
"G 	c #84C1FF",
"H 	c #74B6FF",
"I 	c #65ACFF",
"J 	c #4F97FA",
"K 	c #3267DC",
"L 	c #1F46C6",
"M 	c #2148C7",
"N 	c #002CAB",
"O 	c #4780D4",
"P 	c #F6FFFF",
"Q 	c #EBFFFF",
"R 	c #CFEAF9",
"S 	c #CEEBF9",
"T 	c #D9FAFF",
"U 	c #C4ECFF",
"V 	c #ACDAFF",
"W 	c #92C5FF",
"X 	c #82B8FE",
"Y 	c #6FA9FA",
"Z 	c #5C9AF7",
"` 	c #4D8DF3",
" .	c #336CE3",
"..	c #204BCD",
"+.	c #002AA9",
"@.	c #467ED2",
"#.	c #F5FFFF",
"$.	c #E3FFFF",
"%.	c #D2FBFF",
"&.	c #ABD2F3",
"*.	c #B0DCFF",
"=.	c #99CBFF",
"-.	c #87BBFE",
";.	c #74ABF9",
">.	c #6099F5",
",.	c #4B87F0",
"'.	c #3674EB",
").	c #2964E2",
"!.	c #2254D7",
"~.	c #204ACB",
"{.	c #1C42C5",
"].	c #0C35BD",
"^.	c #0029A8",
"/.	c #457DD1",
"(.	c #EFFFFF",
"_.	c #DAFDFF",
":.	c #B8EAFF",
"<.	c #A1D6FF",
"[.	c #8FC1F8",
"}.	c #93C6FF",
"|.	c #82B7FD",
"1.	c #6FA6F8",
"2.	c #5B94F4",
"3.	c #4682EF",
"4.	c #316FEA",
"5.	c #255FE0",
"6.	c #2052D5",
"7.	c #2049CA",
"8.	c #143CC1",
"9.	c #0633BD",
"0.	c #083CC8",
"a.	c #0028A7",
"b.	c #427BD1",
"c.	c #E6FFFF",
"d.	c #BDEDFF",
"e.	c #ADE2FF",
"f.	c #9ED7FF",
"g.	c #87BFFA",
"h.	c #82B7F9",
"i.	c #7CB2FB",
"j.	c #68A2F8",
"k.	c #5490F4",
"l.	c #3F7DEF",
"m.	c #2B6AE9",
"n.	c #225CDF",
"o.	c #1D4DD0",
"p.	c #0A35BD",
"q.	c #0838C3",
"r.	c #093FCB",
"s.	c #083ECB",
"t.	c #0025A6",
"u.	c #437BD0",
"v.	c #E2F9FF",
"w.	c #D1F3FF",
"x.	c #CAECFF",
"y.	c #BFE3FF",
"z.	c #B1D7FF",
"A.	c #A1C3F6",
"B.	c #9FC3F8",
"C.	c #90B5F3",
"D.	c #80A6EE",
"E.	c #7097E9",
"F.	c #6288E3",
"G.	c #587AD7",
"H.	c #4C67C7",
"I.	c #4C66C5",
"J.	c #4A65C5",
"K.	c #4762C4",
"L.	c #4560C2",
"M.	c #0027A6",
"N.	c #FDFDFF",
"O.	c #F7F7FB",
"P.	c #F0F0F7",
"Q.	c #EBEBF3",
"R.	c #E4E4EE",
"S.	c #DFDFEA",
"T.	c #D9D9E5",
"U.	c #D2D2E1",
"V.	c #CDCDDC",
"W.	c #C6C6D7",
"X.	c #C0C0D2",
"Y.	c #BABACE",
"Z.	c #B5B5CA",
"`.	c #002BA7",
" +	c #4379CE",
".+	c #FAFAFE",
"++	c #F4F4F9",
"@+	c #EEEEF5",
"#+	c #E8E8F0",
"$+	c #E2E2EC",
"%+	c #DBDBE8",
"&+	c #D6D6E3",
"*+	c #CFCFDF",
"=+	c #CACAD9",
"-+	c #C3C3D5",
";+	c #BDBDD0",
">+	c #B7B7CC",
",+	c #0029A6",
"'+	c #4378CE",
")+	c #D8D8E5",
"!+	c #D2D2E0",
"~+	c #CCCCDB",
"{+	c #0027A5",
"]+	c #4276CD",
"^+	c #F9F9FD",
"/+	c #EFEFF4",
"(+	c #E5E6EB",
"_+	c #DBDCE3",
":+	c #D1D2DA",
"<+	c #C8CAD1",
"[+	c #BFC0CA",
"}+	c #B5B7C1",
"|+	c #ADAEBA",
"1+	c #A8ABB7",
"2+	c #A4A6B3",
"3+	c #0025A4",
"4+	c #002186",
"                                            ",
"        . . . .                             ",
"        . + + @               # $           ",
"        . + + @             % & * =         ",
"  . . . . + + @ @ @ @   - ; > , ' )         ",
"  . + + + + + + + + @ ! ~ { ] , ^ / (       ",
"  . + + + + + + + + @ _ : < ] , ^ [ } |     ",
"  @ @ @ . + + @ @ @ @ 1 : < 2 3 4 5 6 7 8 9 ",
"      0 . + + @ a a a 1 : b c d e f g h i j ",
"      k . + + @ l m n o p q r s t u v w x y ",
"      z @ @ @ @ A B C D E F G H I J K L M N ",
"      O P Q R S T U V W X Y Z `  ...L L M +.",
"      @.#.$.%.&.*.=.-.;.>.,.'.).!.~.L {.].^.",
"      /.(._.:.<.[.}.|.1.2.3.4.5.6.7.8.9.0.a.",
"      b.c.d.e.f.g.h.i.j.k.l.m.n.o.p.q.r.s.t.",
"      u.v.w.x.y.z.A.B.C.D.E.F.G.H.I.J.K.L.M.",
"      m a a a a N.O.P.Q.R.S.T.U.V.W.X.Y.Z.`.",
"       +a a a a a .+++@+#+$+%+&+*+=+-+;+>+,+",
"      '+a a a a a N.O.P.Q.R.S.)+!+~+W.X.Y.{+",
"      ]+a a a a a a ^+/+(+_+:+<+[+}+|+1+2+3+",
"      4+4+4+4+4+4+4+4+4+4+4+4+4+4+4+4+4+4+4+",
"                                            "};
