/* XPM */
static char * hi32_icon_sfvfile_xpm[] = {
"32 32 381 2",
"  	c None",
". 	c #414141",
"+ 	c #FFFFFF",
"@ 	c #FDFDFD",
"# 	c #E0E0E0",
"$ 	c #80807F",
"% 	c #5D6007",
"& 	c #777C21",
"* 	c #898989",
"= 	c #B5B5B5",
"- 	c #D7D7D7",
"; 	c #F5F5F5",
"> 	c #DFDFDF",
", 	c #6E731E",
"' 	c #F8F9F2",
") 	c #929135",
"! 	c #75761F",
"~ 	c #D6D6D6",
"{ 	c #F7F7F7",
"] 	c #DEDEDE",
"^ 	c #303030",
"/ 	c #1E1E1E",
"( 	c #6C7320",
"_ 	c #EDEACE",
": 	c #EDECD0",
"< 	c #E6E4C7",
"[ 	c #F4F3E7",
"} 	c #F8F8F8",
"| 	c #E8E8E8",
"1 	c #040404",
"2 	c #020202",
"3 	c #161616",
"4 	c #FAFBFA",
"5 	c #DDDEDD",
"6 	c #E0DCB1",
"7 	c #E4E2BB",
"8 	c #E1DFBA",
"9 	c #E6E4C5",
"0 	c #D4D4D4",
"a 	c #E6E6E6",
"b 	c #F1F1F1",
"c 	c #F4F4F4",
"d 	c #F4F5F4",
"e 	c #F5F5F4",
"f 	c #FEFEFE",
"g 	c #D5D5D5",
"h 	c #D4CE91",
"i 	c #D8D29D",
"j 	c #D1CE94",
"k 	c #D7D4A2",
"l 	c #DCD9AD",
"m 	c #CFCFCF",
"n 	c #D8D8D8",
"o 	c #E7E7E7",
"p 	c #EEEEEE",
"q 	c #F2F2F2",
"r 	c #6A6F18",
"s 	c #C7C06C",
"t 	c #CCC579",
"u 	c #C0BB6B",
"v 	c #C6C179",
"w 	c #CDC988",
"x 	c #D1CE96",
"y 	c #E7E5CA",
"z 	c #F2F0E3",
"A 	c #F0F0E7",
"B 	c #D8D7B1",
"C 	c #CBCBCB",
"D 	c #DBDBDB",
"E 	c #C3C3C3",
"F 	c #E5E5E5",
"G 	c #EDEDED",
"H 	c #E9E9E9",
"I 	c #D0C847",
"J 	c #CEC34F",
"K 	c #AEA73D",
"L 	c #B4AE4D",
"M 	c #BAB55D",
"N 	c #E5E3C2",
"O 	c #E9E8CC",
"P 	c #5A5F08",
"Q 	c #8B8B8B",
"R 	c #C6C6C6",
"S 	c #94966D",
"T 	c #ACACAC",
"U 	c #D1D1D1",
"V 	c #CCC54D",
"W 	c #CCC54F",
"X 	c #A6A339",
"Y 	c #A8A133",
"Z 	c #AAA337",
"` 	c #E4E1C9",
" .	c #5B6009",
"..	c #8B8B5C",
"+.	c #7F7E0E",
"@.	c #A2A2A2",
"#.	c #CDC540",
"$.	c #CDC546",
"%.	c #A39822",
"&.	c #A1991E",
"*.	c #A39C2E",
"=.	c #C6C27B",
"-.	c #D3CF98",
";.	c #EBEBD2",
">.	c #E9E8DA",
",.	c #ADAC76",
"'.	c #646508",
").	c #E8E8CB",
"!.	c #F4F4E9",
"~.	c #59595A",
"{.	c #3B3B3C",
"].	c #3E3E3F",
"^.	c #3C3C3D",
"/.	c #404041",
"(.	c #585859",
"_.	c #A19621",
":.	c #A29721",
"<.	c #BEB865",
"[.	c #CCC887",
"}.	c #CFCB8F",
"|.	c #DFDDB7",
"1.	c #F3F2E6",
"2.	c #E8E7CD",
"3.	c #E9E6CC",
"4.	c #E8E6C9",
"5.	c #94955A",
"6.	c #5D5D5E",
"7.	c #49494A",
"8.	c #868787",
"9.	c #AFB4B4",
"0.	c #BBC4C6",
"a.	c #BBC5C6",
"b.	c #B2B7B7",
"c.	c #7A7A7B",
"d.	c #1D1D1D",
"e.	c #474747",
"f.	c #9E9A30",
"g.	c #B0AA45",
"h.	c #B7B152",
"i.	c #BEB967",
"j.	c #C8C480",
"k.	c #D3CF9A",
"l.	c #DAD7A7",
"m.	c #939459",
"n.	c #444445",
"o.	c #7B7879",
"p.	c #CFDADA",
"q.	c #E5F0F2",
"r.	c #DCF2F5",
"s.	c #DDF4FA",
"t.	c #D7F3F8",
"u.	c #CCEFF7",
"v.	c #DCE7E9",
"w.	c #6F6F70",
"x.	c #434343",
"y.	c #9A9838",
"z.	c #A19E3A",
"A.	c #A09C31",
"B.	c #A8A135",
"C.	c #AAA43B",
"D.	c #929153",
"E.	c #4C4C4D",
"F.	c #7D7E7D",
"G.	c #E9F8FA",
"H.	c #C6EDF5",
"I.	c #BDE7F0",
"J.	c #A5DCEA",
"K.	c #9BD6E2",
"L.	c #BBE7EE",
"M.	c #444444",
"N.	c #8E9031",
"O.	c #989937",
"P.	c #9F9D3A",
"Q.	c #A29F3B",
"R.	c #8E8D4B",
"S.	c #C5CFD2",
"T.	c #B1E2EC",
"U.	c #9DD9E6",
"V.	c #8ACDD9",
"W.	c #81C9D6",
"X.	c #AFE1EC",
"Y.	c #CED9D9",
"Z.	c #29292A",
"`.	c #80833A",
" +	c #8A8B2D",
".+	c #919231",
"++	c #969733",
"@+	c #9A9B38",
"#+	c #898840",
"$+	c #5C5C5C",
"%+	c #A2A7A7",
"&+	c #E5F4F8",
"*+	c #C3E9F0",
"=+	c #ACE0EB",
"-+	c #99D8E6",
";+	c #87CDDC",
">+	c #6CBACB",
",+	c #7BC4D4",
"'+	c #9DA2A1",
")+	c #626262",
"!+	c #6D7420",
"~+	c #7A8029",
"{+	c #848A2B",
"]+	c #8E8F2E",
"^+	c #929332",
"/+	c #868537",
"(+	c #BAC0C1",
"_+	c #E7F3F6",
":+	c #CBE9F2",
"<+	c #86D1E1",
"[+	c #6CC3D9",
"}+	c #50A6B9",
"|+	c #6AB5C3",
"1+	c #B2C7CB",
"2+	c #454545",
"3+	c #767731",
"4+	c #68690E",
"5+	c #737A1F",
"6+	c #7C832A",
"7+	c #878A2B",
"8+	c #8D8E2F",
"9+	c #7F7C30",
"0+	c #E3F2F4",
"a+	c #C5E7EC",
"b+	c #A8E1EB",
"c+	c #96D7E7",
"d+	c #74C8DD",
"e+	c #5BB1C4",
"f+	c #4399A8",
"g+	c #54ACB9",
"h+	c #0C0C0C",
"i+	c #B9B9B9",
"j+	c #C0C1A4",
"k+	c #89883A",
"l+	c #6D6E0F",
"m+	c #72781B",
"n+	c #777E23",
"o+	c #8F902F",
"p+	c #989737",
"q+	c #767529",
"r+	c #434344",
"s+	c #A6ABAA",
"t+	c #D8EDF1",
"u+	c #B1DBE4",
"v+	c #96D5E5",
"w+	c #4DBACE",
"x+	c #449AA9",
"y+	c #3D8996",
"z+	c #63B5C4",
"A+	c #ABDFEA",
"B+	c #232323",
"C+	c #A6A6A6",
"D+	c #C1C1C1",
"E+	c #C2C1A3",
"F+	c #767B1E",
"G+	c #888B2C",
"H+	c #727324",
"I+	c #6C6C6C",
"J+	c #78C3D3",
"K+	c #68BDCF",
"L+	c #4CB7CB",
"M+	c #4298A7",
"N+	c #398491",
"O+	c #489EAD",
"P+	c #404647",
"Q+	c #505050",
"R+	c #A4A4A4",
"S+	c #BFBFBF",
"T+	c #CDCDCD",
"U+	c #CCCCCC",
"V+	c #C9C9C9",
"W+	c #CACACA",
"X+	c #D0D0D0",
"Y+	c #BCBC9D",
"Z+	c #898A3B",
"`+	c #6D6E11",
" @	c #757A1F",
".@	c #757C21",
"+@	c #686B1C",
"@@	c #484848",
"#@	c #797A79",
"$@	c #D7F0F4",
"%@	c #A4DBE9",
"&@	c #79BFCC",
"*@	c #60B3C5",
"=@	c #52A7B3",
"-@	c #4496A5",
";@	c #50A3B5",
">@	c #8ACFE1",
",@	c #000000",
"'@	c #9C9C9C",
")@	c #A3A3A3",
"!@	c #BEBEBE",
"~@	c #C8C8C8",
"{@	c #C4C4C4",
"]@	c #DDDDDD",
"^@	c #CFD0B9",
"/@	c #8A8B3E",
"(@	c #424242",
"_@	c #8E8E8E",
":@	c #5C5D5C",
"<@	c #BAE4EF",
"[@	c #99D4E0",
"}@	c #87CAD6",
"|@	c #BDE6F0",
"1@	c #414648",
"2@	c #AC993F",
"3@	c #A8A8A8",
"4@	c #C0C0C0",
"5@	c #BDBDBD",
"6@	c #B8B8B8",
"7@	c #929292",
"8@	c #ADADAD",
"9@	c #5B5B5B",
"0@	c #6C6D6C",
"a@	c #7B7C7B",
"b@	c #79989C",
"c@	c #A9C7CE",
"d@	c #B3CAD0",
"e@	c #88A8AD",
"f@	c #6B7274",
"g@	c #DECE9D",
"h@	c #635920",
"i@	c #BBBBBB",
"j@	c #8A8A8A",
"k@	c #4D4D4E",
"l@	c #595959",
"m@	c #737374",
"n@	c #757576",
"o@	c #717172",
"p@	c #707071",
"q@	c #424849",
"r@	c #414748",
"s@	c #BDA44C",
"t@	c #B4B4B4",
"u@	c #BCBCBC",
"v@	c #858585",
"w@	c #B0B0B0",
"x@	c #7C7C7C",
"y@	c #717171",
"z@	c #4F4F4F",
"A@	c #4A4A4A",
"B@	c #494949",
"C@	c #686868",
"D@	c #070707",
"E@	c #928237",
"F@	c #747475",
"G@	c #767677",
"H@	c #373738",
"I@	c #969696",
"J@	c #838383",
"K@	c #7D7D7D",
"L@	c #A7A7A7",
"M@	c #363637",
"N@	c #777778",
"O@	c #E1E1E1",
"P@	c #39393A",
"Q@	c #757575",
"R@	c #ABABAB",
"S@	c #878787",
"T@	c #B1B1B1",
"U@	c #7E7E7E",
"V@	c #C7C7C7",
"W@	c #3A3F40",
"X@	c #727273",
"Y@	c #CECECE",
"Z@	c #313131",
"`@	c #959595",
" #	c #808080",
".#	c #A9A9A9",
"+#	c #777777",
"@#	c #3D3D3E",
"##	c #5E5E5E",
"$#	c #A0A0A0",
"%#	c #7A7A7A",
"&#	c #323233",
"*#	c #7F7F80",
"=#	c #3E3E3E",
"-#	c #787878",
";#	c #919191",
">#	c #0B0B0B",
"                . . .                                           ",
"              . + @ # . . .                                     ",
"          $ % & * = - + ; > . . .                               ",
"          , ' ' ) % ! * = ~ + { ] ^ ^ ^       / / /             ",
"          ( _ : < [ + ) % ! * = - + } | 1 2 3 4 + 5 / / /       ",
"          ( 6 7 8 9 < < [ + ) % ! * = 0 a b c c c d e f g /     ",
"          ( h i j k l 8 9 < < [ + ) % ! * m n o c p q c c o /   ",
"          r s t u v w x k l 8 9 y z A B ! = C - D E 0 F G H /   ",
"          r I J K L M u v w x k l 8 N O P Q = R ~ ) S T U ] o / ",
"          r V W X Y Z K L M u v w x k ` )  ...* = % ) % +.@.- / ",
"          r #.$.%.%.&.*.Y Z K L M u =.-.;.>.,.'.) % ).!.+ ) @./ ",
"          ~.{.].^./.(._.:.&.X Y Z K L <.[.}.|.1.2.) 9 3.4.5.@./ ",
"      6.7.8.9.0.a.b.c.d.e.f.:.%.&.X Y Z g.h.i.j.k.l.-.k l m.@./ ",
"    n.o.p.q.r.s.t.u.s.v.w.x.y.z.A.%.%.&.X B.C.K L M u v w D.@./ ",
"  E.F.v.G.+ G.H.I.J.K.L.v.F.M.N.O.P.Q.A.%.%.&.X B.Z K L M R.@./ ",
"  7.S.G.+ + + G.T.U.V.W.X.Y.Z.`. +.+++@+P.Q.A.%.%.&.*.Y Z #+@./ ",
"$+%+v.r.&++ G.*+=+-+;+>+,+X.'+)+!+~+{+]+^+++@+P.Q.A.%.%.&./+@./ ",
"7.(+_+:+:+G.*+X.-+<+[+}+|+T.1+2+3+4+5+& 6+7+8+^+++@+P.Q.A.9+@./ ",
"7.0.0+a+L.T.b+c+<+d+e+f+g+b+1+h+i+- j+k+l+m+n+6+{+o+^+++p+q+@./ ",
"r+s+t+u+K.-+v+<+d+w+x+y+z+A+%+B+C+D+U n F E+k+l+F+n+6+G+o+H+@./ ",
"I+F.p.X.V.W.J+K+L+M+N+O+v+p.P+Q+R+S+T+U+V+W+X+> Y+Z+`+ @.@+@@./ ",
"  @@#@$@%@&@*@=@-@y+;@>@t+'+,@'@)@!@C C ~@{@D+!@S+R ]@^@/@(@@./ ",
"  _@:@F.t+<@[@}@J+;+|@t+F.1@,@2@3@!@W+V+R E 4@5@i+6@U 7@8@2+@./ ",
"    9@0@a@b@c@a+a+d@e@f@1@,@+ g@h@!@R R E D+!@i@6@] j@8@U+2+@./ ",
"      $+k@l@m@n@o@p@q@r@,@s@g@+ m@].t@S+4@!@i@u@F v@w@n x@2+@./ ",
"          y@k@z@A@B@C@D@h@E@q@F@+ G@H@I@i+u@i+] J@w@] K@L@2+@./ ",
"                          h@M@q@N@O@c.P@Q@R@n S@T@n U@3@V@2+@./ ",
"                            M@M@W@X@Y@w.Z@`@ #T@U+x@.#V++#2+@./ ",
"                              ,@M@q@p@Y@p@@#/ B@##$#W+%#@.2+@./ ",
"                                &#M@q@p@*#/.    / / =#-#I@2+;#/ ",
"                                  ,@M@q@>#/.          / / / /   ",
"                                    ,@,@/.                      "};
