/* XPM */
static char * hi32_icon_md5file_xpm[] = {
"32 32 380 2",
"  	c None",
". 	c #414141",
"+ 	c #FFFFFF",
"@ 	c #FDFDFD",
"# 	c #E0E0E0",
"$ 	c #7F8080",
"% 	c #0F5830",
"& 	c #29744C",
"* 	c #898989",
"= 	c #B5B5B5",
"- 	c #D7D7D7",
"; 	c #F5F5F5",
"> 	c #DFDFDF",
", 	c #266B46",
"' 	c #F3F8F5",
") 	c #3D8A5C",
"! 	c #266F45",
"~ 	c #D6D6D6",
"{ 	c #F7F7F7",
"] 	c #DEDEDE",
"^ 	c #303030",
"/ 	c #1E1E1E",
"( 	c #276C49",
"_ 	c #D1EAD9",
": 	c #D3EADC",
"< 	c #C9E4D2",
"[ 	c #E8F3EC",
"} 	c #F8F8F8",
"| 	c #E8E8E8",
"1 	c #040404",
"2 	c #020202",
"3 	c #161616",
"4 	c #FAFBFB",
"5 	c #DDDEDE",
"6 	c #B5DCC2",
"7 	c #BFE0CB",
"8 	c #BDDEC9",
"9 	c #C8E3D2",
"0 	c #D4D4D4",
"a 	c #E6E6E6",
"b 	c #F1F1F1",
"c 	c #F4F4F4",
"d 	c #F4F5F5",
"e 	c #FEFEFE",
"f 	c #D5D5D5",
"g 	c #97CEA9",
"h 	c #A2D3B1",
"i 	c #99CCAB",
"j 	c #A7D2B6",
"k 	c #B1D8BF",
"l 	c #CFCFCF",
"m 	c #D8D8D8",
"n 	c #E7E7E7",
"o 	c #EEEEEE",
"p 	c #F2F2F2",
"q 	c #206741",
"r 	c #73C08D",
"s 	c #81C497",
"t 	c #73B88B",
"u 	c #80BF96",
"v 	c #8EC7A2",
"w 	c #9BCCAC",
"x 	c #CCE5D4",
"y 	c #E5F0E8",
"z 	c #E8EFEB",
"A 	c #B4D5C0",
"B 	c #CBCBCB",
"C 	c #DBDBDB",
"D 	c #C3C3C3",
"E 	c #E5E5E5",
"F 	c #EDEDED",
"G 	c #E9E9E9",
"H 	c #54C37B",
"I 	c #5AC37D",
"J 	c #47A468",
"K 	c #56AB74",
"L 	c #65B280",
"M 	c #C5E2CF",
"N 	c #CFE6D8",
"O 	c #105731",
"P 	c #8B8B8B",
"Q 	c #C6C6C6",
"R 	c #719280",
"S 	c #ACACAC",
"T 	c #D1D1D1",
"U 	c #58C17D",
"V 	c #5AC17E",
"W 	c #429D64",
"X 	c #3E9D5F",
"Y 	c #41A063",
"Z 	c #CCE1D2",
"` 	c #115832",
" .	c #608771",
"..	c #18753D",
"+.	c #A2A2A2",
"@.	c #4CC175",
"#.	c #52C179",
"$.	c #2E9750",
"%.	c #2A9550",
"&.	c #38995A",
"*.	c #82BF97",
"=.	c #9DCEAE",
"-.	c #D4E9DC",
";.	c #DCE7E0",
">.	c #7BA88D",
",.	c #105D31",
"'.	c #CDE6D8",
").	c #EAF3ED",
"!.	c #59595A",
"~.	c #3B3B3C",
"{.	c #3E3E3F",
"].	c #3C3C3D",
"^.	c #404041",
"/.	c #585859",
"(.	c #2D954F",
"_.	c #2D964F",
":.	c #6DB687",
"<.	c #8DC6A1",
"[.	c #94C9A7",
"}.	c #BBDCC7",
"|.	c #E7F2EB",
"1.	c #C8E3D1",
"2.	c #CFE6D7",
"3.	c #CCE5D5",
"4.	c #5F8F74",
"5.	c #5D5D5E",
"6.	c #49494A",
"7.	c #868787",
"8.	c #AFB4B4",
"9.	c #BBC4C6",
"0.	c #BBC5C6",
"a.	c #B2B7B7",
"b.	c #7A7A7B",
"c.	c #1D1D1D",
"d.	c #474747",
"e.	c #3A945B",
"f.	c #4FA66E",
"g.	c #5BAE78",
"h.	c #6FB688",
"i.	c #87C29C",
"j.	c #9FCEB0",
"k.	c #ACD5BA",
"l.	c #5E8F73",
"m.	c #444445",
"n.	c #7B7879",
"o.	c #CFDADA",
"p.	c #E5F0F2",
"q.	c #DCF2F5",
"r.	c #DDF4FA",
"s.	c #D7F3F8",
"t.	c #CCEFF7",
"u.	c #DCE7E9",
"v.	c #6F6F70",
"w.	c #434343",
"x.	c #419161",
"y.	c #439863",
"z.	c #3B965D",
"A.	c #3F9E61",
"B.	c #44A065",
"C.	c #598C6D",
"D.	c #4C4C4D",
"E.	c #7D7E7D",
"F.	c #E9F8FA",
"G.	c #C6EDF5",
"H.	c #BDE7F0",
"I.	c #A5DCEA",
"J.	c #9BD6E2",
"K.	c #BBE7EE",
"L.	c #444444",
"M.	c #39885A",
"N.	c #409062",
"O.	c #439664",
"P.	c #449964",
"Q.	c #518867",
"R.	c #C5CFD2",
"S.	c #B1E2EC",
"T.	c #9DD9E6",
"U.	c #8ACDD9",
"V.	c #81C9D6",
"W.	c #AFE1EC",
"X.	c #CED9D9",
"Y.	c #29292A",
"Z.	c #407C5B",
"`.	c #368256",
" +	c #398A5B",
".+	c #3C8F5F",
"++	c #419263",
"@+	c #46835E",
"#+	c #5C5C5C",
"$+	c #A2A7A7",
"%+	c #E5F4F8",
"&+	c #C3E9F0",
"*+	c #ACE0EB",
"=+	c #99D8E6",
"-+	c #87CDDC",
";+	c #6CBACB",
">+	c #7BC4D4",
",+	c #9DA2A1",
"'+	c #626262",
")+	c #317954",
"!+	c #348158",
"~+	c #378658",
"{+	c #3A8B5C",
"]+	c #3E7F58",
"^+	c #BAC0C1",
"/+	c #E7F3F6",
"(+	c #CBE9F2",
"_+	c #86D1E1",
":+	c #6CC3D9",
"<+	c #50A6B9",
"[+	c #6AB5C3",
"}+	c #B2C7CB",
"|+	c #454545",
"1+	c #37714F",
"2+	c #166236",
"3+	c #27724C",
"4+	c #327B56",
"5+	c #338256",
"6+	c #378659",
"7+	c #37784F",
"8+	c #E3F2F4",
"9+	c #C5E7EC",
"0+	c #A8E1EB",
"a+	c #96D7E7",
"b+	c #74C8DD",
"c+	c #5BB1C4",
"d+	c #4399A8",
"e+	c #54ACB9",
"f+	c #0C0C0C",
"g+	c #B9B9B9",
"h+	c #A7BEB1",
"i+	c #41825B",
"j+	c #176639",
"k+	c #237047",
"l+	c #2B7650",
"m+	c #338258",
"n+	c #388759",
"o+	c #408F60",
"p+	c #306F49",
"q+	c #434344",
"r+	c #A6ABAA",
"s+	c #D8EDF1",
"t+	c #B1DBE4",
"u+	c #96D5E5",
"v+	c #4DBACE",
"w+	c #449AA9",
"x+	c #3D8996",
"y+	c #63B5C4",
"z+	c #ABDFEA",
"A+	c #232323",
"B+	c #A6A6A6",
"C+	c #C1C1C1",
"D+	c #A6BFB0",
"E+	c #26734A",
"F+	c #348357",
"G+	c #2B6C46",
"H+	c #6C6C6C",
"I+	c #78C3D3",
"J+	c #68BDCF",
"K+	c #4CB7CB",
"L+	c #4298A7",
"M+	c #398491",
"N+	c #489EAD",
"O+	c #404647",
"P+	c #505050",
"Q+	c #A4A4A4",
"R+	c #BFBFBF",
"S+	c #CDCDCD",
"T+	c #CCCCCC",
"U+	c #C9C9C9",
"V+	c #CACACA",
"W+	c #D0D0D0",
"X+	c #A0B9AB",
"Y+	c #42835E",
"Z+	c #19663A",
"`+	c #27724A",
" @	c #29744E",
".@	c #236440",
"+@	c #484848",
"@@	c #797A79",
"#@	c #D7F0F4",
"$@	c #A4DBE9",
"%@	c #79BFCC",
"&@	c #60B3C5",
"*@	c #52A7B3",
"=@	c #4496A5",
"-@	c #50A3B5",
";@	c #8ACFE1",
">@	c #000000",
",@	c #9C9C9C",
"'@	c #A3A3A3",
")@	c #BEBEBE",
"!@	c #C8C8C8",
"~@	c #C4C4C4",
"{@	c #DDDDDD",
"]@	c #BBCEC4",
"^@	c #448560",
"/@	c #424242",
"(@	c #8E8E8E",
"_@	c #5C5D5C",
":@	c #BAE4EF",
"<@	c #99D4E0",
"[@	c #87CAD6",
"}@	c #BDE6F0",
"|@	c #414648",
"1@	c #AC993F",
"2@	c #A8A8A8",
"3@	c #C0C0C0",
"4@	c #BDBDBD",
"5@	c #B8B8B8",
"6@	c #929292",
"7@	c #ADADAD",
"8@	c #5B5B5B",
"9@	c #6C6D6C",
"0@	c #7B7C7B",
"a@	c #79989C",
"b@	c #A9C7CE",
"c@	c #B3CAD0",
"d@	c #88A8AD",
"e@	c #6B7274",
"f@	c #DECE9D",
"g@	c #635920",
"h@	c #BBBBBB",
"i@	c #8A8A8A",
"j@	c #4D4D4E",
"k@	c #595959",
"l@	c #737374",
"m@	c #757576",
"n@	c #717172",
"o@	c #707071",
"p@	c #424849",
"q@	c #414748",
"r@	c #BDA44C",
"s@	c #B4B4B4",
"t@	c #BCBCBC",
"u@	c #858585",
"v@	c #B0B0B0",
"w@	c #7C7C7C",
"x@	c #717171",
"y@	c #4F4F4F",
"z@	c #4A4A4A",
"A@	c #494949",
"B@	c #686868",
"C@	c #070707",
"D@	c #928237",
"E@	c #747475",
"F@	c #767677",
"G@	c #373738",
"H@	c #969696",
"I@	c #838383",
"J@	c #7D7D7D",
"K@	c #A7A7A7",
"L@	c #363637",
"M@	c #777778",
"N@	c #E1E1E1",
"O@	c #39393A",
"P@	c #757575",
"Q@	c #ABABAB",
"R@	c #878787",
"S@	c #B1B1B1",
"T@	c #7E7E7E",
"U@	c #C7C7C7",
"V@	c #3A3F40",
"W@	c #727273",
"X@	c #CECECE",
"Y@	c #313131",
"Z@	c #959595",
"`@	c #808080",
" #	c #A9A9A9",
".#	c #777777",
"+#	c #3D3D3E",
"@#	c #5E5E5E",
"##	c #A0A0A0",
"$#	c #7A7A7A",
"%#	c #323233",
"&#	c #7F7F80",
"*#	c #3E3E3E",
"=#	c #787878",
"-#	c #919191",
";#	c #0B0B0B",
"                . . .                                           ",
"              . + @ # . . .                                     ",
"          $ % & * = - + ; > . . .                               ",
"          , ' ' ) % ! * = ~ + { ] ^ ^ ^       / / /             ",
"          ( _ : < [ + ) % ! * = - + } | 1 2 3 4 + 5 / / /       ",
"          ( 6 7 8 9 < < [ + ) % ! * = 0 a b c c c d d e f /     ",
"          ( g h i j k 8 9 < < [ + ) % ! * l m n c o p c c n /   ",
"          q r s t u v w j k 8 9 x y z A ! = B - C D 0 E F G /   ",
"          q H I J K L t u v w j k 8 M N O P = Q ~ ) R S T ] n / ",
"          q U V W X Y J K L t u v w j Z ) `  .* = % ) % ..+.- / ",
"          q @.#.$.$.%.&.X Y J K L t *.=.-.;.>.,.) % '.).+ ) +./ ",
"          !.~.{.].^./.(._.%.W X Y J K :.<.[.}.|.N ) 1.2.3.4.+./ ",
"      5.6.7.8.9.0.a.b.c.d.e._.$.%.W X Y f.g.h.i.j.k.=.j k l.+./ ",
"    m.n.o.p.q.r.s.t.r.u.v.w.x.y.z.$.$.%.W A.B.J K L t u v C.+./ ",
"  D.E.u.F.+ F.G.H.I.J.K.u.E.L.M.N.O.P.z.$.$.%.W A.Y J K L Q.+./ ",
"  6.R.F.+ + + F.S.T.U.V.W.X.Y.Z.`. +.+++O.P.z.$.$.%.&.X Y @++./ ",
"#+$+u.q.%++ F.&+*+=+-+;+>+W.,+'+( )+!+~+{+.+++O.P.z.$.$.%.]++./ ",
"6.^+/+(+(+F.&+W.=+_+:+<+[+S.}+|+1+2+3+& 4+5+6+{+.+++O.P.z.7++./ ",
"6.9.8+9+K.S.0+a+_+b+c+d+e+0+}+f+g+- h+i+j+k+l+4+m+n+{+.+o+p++./ ",
"q+r+s+t+J.=+u+_+b+v+w+x+y+z+$+A+B+C+T m E D+i+j+E+l+4+F+n+G++./ ",
"H+E.o.W.U.V.I+J+K+L+M+N+u+o.O+P+Q+R+S+T+U+V+W+> X+Y+Z+`+ @.@+./ ",
"  +@@@#@$@%@&@*@=@x+-@;@s+,+>@,@'@)@B B !@~@C+)@R+Q {@]@^@/@+./ ",
"  (@_@E.s+:@<@[@I+-+}@s+E.|@>@1@2@)@V+U+Q D 3@4@g+5@T 6@7@|++./ ",
"    8@9@0@a@b@9+9+c@d@e@|@>@+ f@g@)@Q Q D C+)@h@5@] i@7@T+|++./ ",
"      #+j@k@l@m@n@o@p@q@>@r@f@+ l@{.s@R+3@)@h@t@E u@v@m w@|++./ ",
"          x@j@y@z@A@B@C@g@D@p@E@+ F@G@H@g+t@g+] I@v@] J@K@|++./ ",
"                          g@L@p@M@N@b.O@P@Q@m R@S@m T@2@U@|++./ ",
"                            L@L@V@W@X@v.Y@Z@`@S@T+w@ #U+.#|++./ ",
"                              >@L@p@o@X@o@+#/ A@@###V+$#+.|++./ ",
"                                %#L@p@o@&#^.    / / *#=#H@|+-#/ ",
"                                  >@L@p@;#^.          / / / /   ",
"                                    >@>@^.                      "};
