/* XPM */
static char * icon_app_checksums_xpm[] = {
"32 32 386 2",
"  	c None",
". 	c #414141",
"+ 	c #FFFFFF",
"@ 	c #FDFDFD",
"# 	c #E0E0E0",
"$ 	c #7F8081",
"% 	c #004068",
"& 	c #195A86",
"* 	c #898989",
"= 	c #B5B5B5",
"- 	c #D7D7D7",
"; 	c #F5F5F5",
"> 	c #DFDFDF",
", 	c #17537B",
"' 	c #F2F7FA",
") 	c #2D779B",
"! 	c #175A7F",
"~ 	c #D6D6D6",
"{ 	c #F7F7F7",
"] 	c #DEDEDE",
"^ 	c #303030",
"/ 	c #1E1E1E",
"( 	c #19537C",
"_ 	c #CCE7F0",
": 	c #CEE6F0",
"< 	c #C4E0EA",
"[ 	c #E7F2F6",
"} 	c #F8F8F8",
"| 	c #E8E8E8",
"1 	c #040404",
"2 	c #020202",
"3 	c #161616",
"4 	c #FBFBFC",
"5 	c #DEDEDF",
"6 	c #AED7E5",
"7 	c #B8DBE9",
"8 	c #B6D9E6",
"9 	c #C3DFEA",
"0 	c #D4D4D4",
"a 	c #E6E6E6",
"b 	c #F1F1F1",
"c 	c #F4F4F4",
"d 	c #F5F5F6",
"e 	c #F4F5F6",
"f 	c #FEFEFE",
"g 	c #D5D5D5",
"h 	c #8CC6DB",
"i 	c #98CDDE",
"j 	c #8FC4D8",
"k 	c #9DCBDD",
"l 	c #AAD2E1",
"m 	c #CFCFCF",
"n 	c #D8D8D8",
"o 	c #E7E7E7",
"p 	c #EEEEEE",
"q 	c #F2F2F2",
"r 	c #114E78",
"s 	c #64B6D1",
"t 	c #73BCD4",
"u 	c #64ADC9",
"v 	c #73B5CE",
"w 	c #82BDD4",
"x 	c #90C4D8",
"y 	c #C8E2EB",
"z 	c #E3F0F4",
"A 	c #E7EEF2",
"B 	c #AECFDD",
"C 	c #CBCBCB",
"D 	c #DBDBDB",
"E 	c #C3C3C3",
"F 	c #E5E5E5",
"G 	c #EDEDED",
"H 	c #E9E9E9",
"I 	c #3BB1DD",
"J 	c #44B2DA",
"K 	c #3394B9",
"L 	c #439DBF",
"M 	c #55A5C4",
"N 	c #C0DDE9",
"O 	c #CAE2EC",
"P 	c #014068",
"Q 	c #8B8B8B",
"R 	c #C6C6C6",
"S 	c #6A899B",
"T 	c #ACACAC",
"U 	c #D1D1D1",
"V 	c #42AFD9",
"W 	c #43B0D9",
"X 	c #2F8AB1",
"Y 	c #298BB3",
"Z 	c #2D90B5",
"` 	c #C8E0E7",
" .	c #024068",
"..	c #587D91",
"+.	c #045E8A",
"@.	c #A2A2A2",
"#.	c #33AADB",
"$.	c #3AABDA",
"%.	c #1786AF",
"&.	c #1384AE",
"*.	c #2488AF",
"=.	c #74B5CE",
"-.	c #93C5D9",
";.	c #D0E4EE",
">.	c #DAE6EB",
",.	c #729EB3",
"'.	c #00476F",
").	c #C8DFEC",
"!.	c #E9F2F6",
"~.	c #59595A",
"{.	c #3B3B3C",
"].	c #3E3E3F",
"^.	c #3C3C3D",
"/.	c #404041",
"(.	c #585859",
"_.	c #1684AD",
":.	c #1685AE",
"<.	c #5EAAC7",
"[.	c #81BCD3",
"}.	c #89C0D5",
"|.	c #B4D7E4",
"1.	c #E5F1F5",
"2.	c #CBE2EC",
"3.	c #C2DFEA",
"4.	c #CAE3EC",
"5.	c #C7E1EB",
"6.	c #56839B",
"7.	c #5D5D5E",
"8.	c #49494A",
"9.	c #868787",
"0.	c #AFB4B4",
"a.	c #BBC4C6",
"b.	c #BBC5C6",
"c.	c #B2B7B7",
"d.	c #7A7A7B",
"e.	c #1D1D1D",
"f.	c #474747",
"g.	c #2782A8",
"h.	c #3C98BB",
"i.	c #49A0C1",
"j.	c #60ABC7",
"k.	c #7AB8D0",
"l.	c #96C6D9",
"m.	c #A3CEDF",
"n.	c #93C6D9",
"o.	c #54829A",
"p.	c #444445",
"q.	c #7B7879",
"r.	c #CFDADA",
"s.	c #E5F0F2",
"t.	c #DCF2F5",
"u.	c #DDF4FA",
"v.	c #D7F3F8",
"w.	c #CCEFF7",
"x.	c #DCE7E9",
"y.	c #6F6F70",
"z.	c #434343",
"A.	c #307EA4",
"B.	c #3186AB",
"C.	c #2884AB",
"D.	c #2B8CB3",
"E.	c #3192B6",
"F.	c #449DBF",
"G.	c #4E7F98",
"H.	c #4C4C4D",
"I.	c #7D7E7D",
"J.	c #E9F8FA",
"K.	c #C6EDF5",
"L.	c #BDE7F0",
"M.	c #A5DCEA",
"N.	c #9BD6E2",
"O.	c #BBE7EE",
"P.	c #444444",
"Q.	c #29729A",
"R.	c #2F7CA3",
"S.	c #3282A9",
"T.	c #3287AC",
"U.	c #457B96",
"V.	c #C5CFD2",
"W.	c #B1E2EC",
"X.	c #9DD9E6",
"Y.	c #8ACDD9",
"Z.	c #81C9D6",
"`.	c #AFE1EC",
" +	c #CED9D9",
".+	c #29292A",
"++	c #34698A",
"@+	c #256D94",
"#+	c #28739C",
"$+	c #2B78A1",
"%+	c #307DA5",
"&+	c #3A7491",
"*+	c #5C5C5C",
"=+	c #A2A7A7",
"-+	c #E5F4F8",
";+	c #C3E9F0",
">+	c #ACE0EB",
",+	c #99D8E6",
"'+	c #87CDDC",
")+	c #6CBACB",
"!+	c #7BC4D4",
"~+	c #9DA2A1",
"{+	c #626262",
"]+	c #18527C",
"^+	c #215E8A",
"/+	c #236793",
"(+	c #267098",
"_+	c #29749D",
":+	c #316F8E",
"<+	c #BAC0C1",
"[+	c #E7F3F6",
"}+	c #CBE9F2",
"|+	c #86D1E1",
"1+	c #6CC3D9",
"2+	c #50A6B9",
"3+	c #6AB5C3",
"4+	c #B2C7CB",
"5+	c #454545",
"6+	c #2B617E",
"7+	c #064C72",
"8+	c #175784",
"9+	c #22608D",
"0+	c #236994",
"a+	c #277098",
"b+	c #296A88",
"c+	c #E3F2F4",
"d+	c #C5E7EC",
"e+	c #A8E1EB",
"f+	c #96D7E7",
"g+	c #74C8DD",
"h+	c #5BB1C4",
"i+	c #4399A8",
"j+	c #54ACB9",
"k+	c #0C0C0C",
"l+	c #B9B9B9",
"m+	c #A2B8C4",
"n+	c #337292",
"o+	c #075077",
"p+	c #135682",
"q+	c #1B5A87",
"r+	c #236894",
"s+	c #277199",
"t+	c #2F7BA2",
"u+	c #235F7E",
"v+	c #434344",
"w+	c #A6ABAA",
"x+	c #D8EDF1",
"y+	c #B1DBE4",
"z+	c #96D5E5",
"A+	c #4DBACE",
"B+	c #449AA9",
"C+	c #3D8996",
"D+	c #63B5C4",
"E+	c #ABDFEA",
"F+	c #232323",
"G+	c #A6A6A6",
"H+	c #C1C1C1",
"I+	c #A1B9C5",
"J+	c #165784",
"K+	c #236995",
"L+	c #1D5B7C",
"M+	c #6C6C6C",
"N+	c #78C3D3",
"O+	c #68BDCF",
"P+	c #4CB7CB",
"Q+	c #4298A7",
"R+	c #398491",
"S+	c #489EAD",
"T+	c #404647",
"U+	c #505050",
"V+	c #A4A4A4",
"W+	c #BFBFBF",
"X+	c #CDCDCD",
"Y+	c #CCCCCC",
"Z+	c #C9C9C9",
"`+	c #CACACA",
" @	c #D0D0D0",
".@	c #9AB3C0",
"+@	c #347293",
"@@	c #095278",
"#@	c #175884",
"$@	c #195986",
"%@	c #165073",
"&@	c #484848",
"*@	c #797A79",
"=@	c #D7F0F4",
"-@	c #A4DBE9",
";@	c #79BFCC",
">@	c #60B3C5",
",@	c #52A7B3",
"'@	c #4496A5",
")@	c #50A3B5",
"!@	c #8ACFE1",
"~@	c #000000",
"{@	c #9C9C9C",
"]@	c #A3A3A3",
"^@	c #BEBEBE",
"/@	c #C8C8C8",
"(@	c #C4C4C4",
"_@	c #DDDDDD",
":@	c #B8C9D3",
"<@	c #377494",
"[@	c #424243",
"}@	c #8E8E8E",
"|@	c #5C5D5C",
"1@	c #BAE4EF",
"2@	c #99D4E0",
"3@	c #87CAD6",
"4@	c #BDE6F0",
"5@	c #414648",
"6@	c #AC993F",
"7@	c #A8A8A8",
"8@	c #C0C0C0",
"9@	c #BDBDBD",
"0@	c #B8B8B8",
"a@	c #929292",
"b@	c #ADADAD",
"c@	c #454546",
"d@	c #5B5B5B",
"e@	c #6C6D6C",
"f@	c #7B7C7B",
"g@	c #79989C",
"h@	c #A9C7CE",
"i@	c #B3CAD0",
"j@	c #88A8AD",
"k@	c #6B7274",
"l@	c #DECE9D",
"m@	c #635920",
"n@	c #BBBBBB",
"o@	c #8A8A8A",
"p@	c #4D4D4E",
"q@	c #595959",
"r@	c #737374",
"s@	c #757576",
"t@	c #717172",
"u@	c #707071",
"v@	c #424849",
"w@	c #414748",
"x@	c #BDA44C",
"y@	c #B4B4B4",
"z@	c #BCBCBC",
"A@	c #858585",
"B@	c #B0B0B0",
"C@	c #7C7C7C",
"D@	c #717171",
"E@	c #4F4F4F",
"F@	c #4A4A4A",
"G@	c #494949",
"H@	c #686868",
"I@	c #070707",
"J@	c #928237",
"K@	c #747475",
"L@	c #767677",
"M@	c #373738",
"N@	c #969696",
"O@	c #838383",
"P@	c #7D7D7D",
"Q@	c #A7A7A7",
"R@	c #363637",
"S@	c #777778",
"T@	c #E1E1E1",
"U@	c #39393A",
"V@	c #757575",
"W@	c #ABABAB",
"X@	c #878787",
"Y@	c #B1B1B1",
"Z@	c #7E7E7E",
"`@	c #C7C7C7",
" #	c #3A3F40",
".#	c #727273",
"+#	c #CECECE",
"@#	c #313131",
"##	c #959595",
"$#	c #808080",
"%#	c #A9A9A9",
"&#	c #777777",
"*#	c #3D3D3E",
"=#	c #5E5E5E",
"-#	c #A0A0A0",
";#	c #7A7A7A",
">#	c #323233",
",#	c #7F7F80",
"'#	c #3E3E3E",
")#	c #787878",
"!#	c #919191",
"~#	c #0B0B0B",
"                . . .                                           ",
"              . + @ # . . .                                     ",
"          $ % & * = - + ; > . . .                               ",
"          , ' ' ) % ! * = ~ + { ] ^ ^ ^       / / /             ",
"          ( _ : < [ + ) % ! * = - + } | 1 2 3 4 + 5 / / /       ",
"          ( 6 7 8 9 < < [ + ) % ! * = 0 a b c c c d e f g /     ",
"          ( h i j k l 8 9 < < [ + ) % ! * m n o c p q c c o /   ",
"          r s t u v w x k l 8 9 y z A B ! = C - D E 0 F G H /   ",
"          r I J K L M u v w x k l 8 N O P Q = R ~ ) S T U ] o / ",
"          r V W X Y Z K L M u v w x k ` )  ...* = % ) % +.@.- / ",
"          r #.$.%.%.&.*.Y Z K L M u =.-.;.>.,.'.) % ).!.+ ) @./ ",
"          ~.{.].^./.(._.:.&.X Y Z K L <.[.}.|.1.2.) 3.4.5.6.@./ ",
"      7.8.9.0.a.b.c.d.e.f.g.:.%.&.X Y Z h.i.j.k.l.m.n.k l o.@./ ",
"    p.q.r.s.t.u.v.w.u.x.y.z.A.B.C.%.%.&.X D.E.K F.M u v w G.@./ ",
"  H.I.x.J.+ J.K.L.M.N.O.x.I.P.Q.R.S.T.C.%.%.&.X D.Z K L M U.@./ ",
"  8.V.J.+ + + J.W.X.Y.Z.`. +.+++@+#+$+%+S.T.C.%.%.&.*.Y Z &+@./ ",
"*+=+x.t.-++ J.;+>+,+'+)+!+`.~+{+]+^+/+(+_+$+%+S.T.C.%.%.&.:+@./ ",
"8.<+[+}+}+J.;+`.,+|+1+2+3+W.4+5+6+7+8+& 9+0+a+_+$+%+S.T.C.b+@./ ",
"8.a.c+d+O.W.e+f+|+g+h+i+j+e+4+k+l+- m+n+o+p+q+9+r+s+_+$+t+u+@./ ",
"v+w+x+y+N.,+z+|+g+A+B+C+D+E+=+F+G+H+U n F I+n+o+J+q+9+K+s+L+@./ ",
"M+I.r.`.Y.Z.N+O+P+Q+R+S+z+r.T+U+V+W+X+Y+Z+`+ @> .@+@@@#@$@%@@./ ",
"  &@*@=@-@;@>@,@'@C+)@!@x+~+~@{@]@^@C C /@(@H+^@W+R _@:@<@[@@./ ",
"  }@|@I.x+1@2@3@N+'+4@x+I.5@~@6@7@^@`+Z+R E 8@9@l+0@U a@b@c@@./ ",
"    d@e@f@g@h@d+d+i@j@k@5@~@+ l@m@^@R R E H+^@n@0@] o@b@Y+c@@./ ",
"      *+p@q@r@s@t@u@v@w@~@x@l@+ r@].y@W+8@^@n@z@F A@B@n C@c@@./ ",
"          D@p@E@F@G@H@I@m@J@v@K@+ L@M@N@l+z@l+] O@B@] P@Q@c@@./ ",
"                          m@R@v@S@T@d.U@V@W@n X@Y@n Z@7@`@c@@./ ",
"                            R@R@ #.#+#y.@###$#Y@Y+C@%#Z+&#c@@./ ",
"                              ~@R@v@u@+#u@*#/ G@=#-#`+;#@.c@@./ ",
"                                >#R@v@u@,#/.    / / '#)#N@c@!#/ ",
"                                  ~@R@v@~#/.          / / / /   ",
"                                    ~@~@/.                      "};
