/* XPM */
static char * lvw_sums_notverified_xpm[] = {
"16 16 4 1",
" 	c None",
".	c #202020",
"+	c #0080FF",
"@	c #808080",
"                ",
"                ",
"        ..... + ",
"       ..  ..+  ",
"      ..   +..  ",
"      ... + ..  ",
"       ..+  .   ",
"        +  ..   ",
" +     +@ ..    ",
"+++   ++ ..     ",
" +++ ++  ...    ",
"  ++++@         ",
"   +++   ...    ",
"    +    ...    ",
"                ",
"                "};
