/* XPM */
static char * lvw_sums_verified_xpm[] = {
"16 16 2 1",
" 	c None",
".	c #00C000",
"                ",
"                ",
"              . ",
"             .  ",
"            .   ",
"           .    ",
"          ..    ",
"         ..     ",
"  .     ..      ",
" ...   ..       ",
"  ... ..        ",
"   .....        ",
"    ...         ",
"     .          ",
"                ",
"                "};
