/* XPM */
static char * lvw_sums_invalid_xpm[] = {
"16 16 2 1",
" 	c None",
".	c #FF0000",
"                ",
"                ",
"                ",
"                ",
"   ..     ..    ",
"   ...   ...    ",
"    ... ...     ",
"     .....      ",
"      ...       ",
"     .....      ",
"    ... ...     ",
"   ...   ...    ",
"   ..     ..    ",
"                ",
"                ",
"                "};
