/* XPM */
static char * plus_xpm[] = {
"10 10 4 1",
" 	c None",
".	c #09C600",
"+	c #BCEA7E",
"@	c #098D00",
"   ....   ",
"   .++@   ",
"   .++@   ",
"....++@@@@",
".++++++++@",
".++++++++@",
"@@@.++@@@@",
"   .++@   ",
"   .++@   ",
"   @@@@   "};
