/* XPM */
static char * star2_xpm[] = {
"11 12 12 1",
" 	c None",
".	c #F7941D",
"+	c #FFFF32",
"@	c #FFFF66",
"#	c #FFFF1A",
"$	c #F7D11D",
"%	c #FFFF98",
"&	c #FFFF5D",
"*	c #FFFF8C",
"=	c #FFFFB6",
"-	c #FFFFCC",
";	c #FFFFFF",
"     .     ",
"    .+.    ",
" .. .@. .. ",
".#$.$%$.$#.",
" .&*=-=*&. ",
"  .$-;-$.  ",
"  .$-;-$.  ",
" .&*=-=*&. ",
".#$.$%$.$#.",
" .. .@. .. ",
"    .+.    ",
"     .     "};
